SplineFontDB: 3.2
FontName: Estedad-VF-Black
FullName: Estedad-VF Black
FamilyName: Estedad-VF Black
Weight: Black
Copyright: Copyright (c) 2020 by Amin Abedi (@aminabedi68)-www.fontamin.com,\nwith Reserved Font Name Estedad.\n\nThis Font Software is licensed under the SIL Open Font License, Version 1.1.
Version: 4.0
ItalicAngle: 0
UnderlinePosition: -680
UnderlineWidth: 125
Ascent: 1638
Descent: 410
InvalidEm: 0
UFOAscent: 1720.32
UFODescent: -430.605
LayerCount: 2
Layer: 0 0 "Back" 1
Layer: 1 0 "public.default" 0
StyleMap: 0x0000
FSType: 0
OS2Version: 0
OS2_WeightWidthSlopeOnly: 0
OS2_UseTypoMetrics: 0
CreationTime: 1583601617
ModificationTime: 1585144012
PfmFamily: 33
TTFWeight: 900
TTFWidth: 5
LineGap: 0
VLineGap: 0
OS2TypoAscent: 2311
OS2TypoAOffset: 0
OS2TypoDescent: -1260
OS2TypoDOffset: 0
OS2TypoLinegap: 0
OS2WinAscent: 2311
OS2WinAOffset: 0
OS2WinDescent: 1260
OS2WinDOffset: 0
HheadAscent: 2311
HheadAOffset: 0
HheadDescent: -1260
HheadDOffset: 0
OS2CapHeight: 1470
OS2XHeight: 1063
OS2Vendor: 'amin'
Lookup: 2 0 0 "Multiple substitution 0" { "Multiple substitution 0 subtable"  } []
Lookup: 2 0 0 "Multiple substitution 1" { "Multiple substitution 1 subtable"  } []
Lookup: 1 9 0 "'fina' Terminal Forms in Arabic lookup 2" { "'fina' Terminal Forms in Arabic lookup 2 subtable"  } ['fina' ('arab' <'FAR ' 'KUR ' 'dflt' > ) ]
Lookup: 1 9 0 "'medi' Medial Forms in Arabic lookup 3" { "'medi' Medial Forms in Arabic lookup 3 subtable"  } ['medi' ('arab' <'FAR ' 'KUR ' 'dflt' > ) ]
Lookup: 1 9 0 "'init' Initial Forms in Arabic lookup 4" { "'init' Initial Forms in Arabic lookup 4 subtable"  } ['init' ('arab' <'FAR ' 'KUR ' 'dflt' > ) ]
Lookup: 4 9 1 "'rlig' Required Ligatures in Arabic lookup 5" { "'rlig' Required Ligatures in Arabic lookup 5 subtable"  } ['rlig' ('arab' <'FAR ' 'KUR ' 'dflt' > ) ]
Lookup: 4 0 1 "'ccmp' Glyph Composition/Decomposition lookup 6" { "'ccmp' Glyph Composition/Decomposition lookup 6 subtable"  } ['rlig' ('arab' <'FAR ' 'KUR ' 'dflt' > ) ]

StartChar: period
Encoding: 46 46 0
GlifName: period
Width: 577
VWidth: 2150
GlyphClass: 2
Flags: HMW
LayerCount: 2
Fore
SplineSet
126 160 m 256
 126 249 200 318 289 318 c 256
 378 318 452 249 452 160 c 256
 452 71 378 0 289 0 c 256
 200 0 126 71 126 160 c 256
EndSplineSet
EndChar

StartChar: slash
Encoding: 47 47 1
GlifName: slash
Width: 1102
VWidth: 2150
GlyphClass: 2
Flags: HMW
LayerCount: 2
Fore
SplineSet
765 1445 m 257
 1061 1292 l 257
 361 -21 l 257
 65 132 l 257
 765 1445 l 257
EndSplineSet
EndChar

StartChar: asterisk
Encoding: 42 42 2
GlifName: asterisk
Width: 1189
VWidth: 2150
GlyphClass: 2
Flags: HMW
LayerCount: 2
Fore
SplineSet
146 1019 m 257
 214 1228 l 257
 496 1126 l 257
 484 1424 l 257
 705 1424 l 257
 694 1125 l 257
 976 1228 l 257
 1044 1019 l 257
 756 937 l 257
 942 698 l 257
 762 569 l 257
 594 820 l 257
 427 569 l 257
 248 698 l 257
 434 937 l 257
 146 1019 l 257
EndSplineSet
EndChar

StartChar: parenleft
Encoding: 40 40 3
GlifName: parenleft
Width: 586
VWidth: 2150
GlyphClass: 2
Flags: HMW
LayerCount: 2
Fore
SplineSet
534 -22 m 257
 344 -146 l 257
 165 118 53 349 53 712 c 256
 53 1075 165 1306 344 1570 c 257
 534 1446 l 257
 379 1205 322 989 322 712 c 256
 322 435 379 219 534 -22 c 257
EndSplineSet
EndChar

StartChar: parenright
Encoding: 41 41 4
GlifName: parenright
Width: 586
VWidth: 2150
GlyphClass: 2
Flags: HMW
LayerCount: 2
Fore
SplineSet
53 1446 m 257
 242 1570 l 257
 421 1306 534 1075 534 712 c 256
 534 349 421 118 242 -146 c 257
 53 -22 l 257
 208 219 264 435 264 712 c 256
 264 989 208 1205 53 1446 c 257
EndSplineSet
EndChar

StartChar: uni0660
Encoding: 1632 1632 5
GlifName: uni0660
Width: 932
VWidth: 2150
GlyphClass: 2
Flags: HMW
LayerCount: 2
Fore
SplineSet
465 693 m 256
 383 693 320 631 320 549 c 256
 320 467 384 403 465 403 c 256
 546 403 610 467 610 549 c 256
 610 630 547 693 465 693 c 256
465 940 m 256
 680 940 857 766 857 549 c 256
 857 333 683 156 465 156 c 256
 247 156 75 334 75 549 c 256
 75 765 249 940 465 940 c 256
EndSplineSet
PairPos2: "'kern' Horizontal Kerning in Arabic lookup 7 per glyph data 0" uni0662 dx=-131 dy=0 dh=-131 dv=0 dx=0 dy=0 dh=0 dv=0
PairPos2: "'kern' Horizontal Kerning in Arabic lookup 7 per glyph data 0" uni0666 dx=-26 dy=0 dh=-26 dv=0 dx=0 dy=0 dh=0 dv=0
PairPos2: "'kern' Horizontal Kerning in Arabic lookup 7 per glyph data 0" uni0667 dx=-105 dy=0 dh=-105 dv=0 dx=0 dy=0 dh=0 dv=0
PairPos2: "'kern' Horizontal Kerning in Arabic lookup 7 per glyph data 0" uni0661 dx=53 dy=0 dh=53 dv=0 dx=0 dy=0 dh=0 dv=0
EndChar

StartChar: uni0661
Encoding: 1633 1633 6
GlifName: uni0661
Width: 700
VWidth: 2150
GlyphClass: 2
Flags: HMW
LayerCount: 2
Fore
SplineSet
600 0 m 257
 284 0 l 257
 284 540 206 876 40 1341 c 257
 337 1446 l 257
 513 957 600 573 600 0 c 257
EndSplineSet
PairPos2: "'kern' Horizontal Kerning in Arabic lookup 7 per glyph data 0" uni0660 dx=-53 dy=0 dh=-53 dv=0 dx=0 dy=0 dh=0 dv=0
PairPos2: "'kern' Horizontal Kerning in Arabic lookup 7 per glyph data 0" uni0665 dx=-53 dy=0 dh=-53 dv=0 dx=0 dy=0 dh=0 dv=0
EndChar

StartChar: uni0662
Encoding: 1634 1634 7
GlifName: uni0662
Width: 1119
VWidth: 2150
GlyphClass: 2
Flags: HMW
LayerCount: 2
Fore
SplineSet
591 965 m 256
 719 965 734 1125 734 1445 c 257
 1049 1445 l 257
 1049 1169 1049 650 620 650 c 256
 598 650 574 651 551 654 c 257
 586 438 600 248 600 0 c 257
 284 0 l 257
 284 553 184 927 40 1353 c 257
 341 1445 l 257
 436 1113 482 965 591 965 c 256
EndSplineSet
EndChar

StartChar: uni0663
Encoding: 1635 1635 8
GlifName: uni0663
Width: 1464
VWidth: 2150
GlyphClass: 2
Flags: HMW
LayerCount: 2
Fore
SplineSet
902 1382 m 257
 898 1310 896 1261 896 1171 c 256
 896 1039 920 991 989 991 c 256
 1060 991 1078 1050 1078 1179 c 256
 1078 1256 1067 1336 1055 1392 c 257
 1364 1445 l 257
 1378 1381 1394 1297 1394 1179 c 256
 1394 908 1268 676 982 676 c 256
 875 676 812 715 749 772 c 257
 702 710 645 676 569 676 c 256
 560 676 551 676 542 676 c 257
 577 459 590 249 590 0 c 257
 275 0 l 257
 275 556 179 949 40 1345 c 257
 337 1445 l 257
 426 1091 457 991 531 991 c 256
 617 991 646 1138 653 1393 c 257
 902 1382 l 257
EndSplineSet
PairPos2: "'kern' Horizontal Kerning in Arabic lookup 7 per glyph data 0" uni0668 dx=-53 dy=0 dh=-53 dv=0 dx=0 dy=0 dh=0 dv=0
EndChar

StartChar: uni0664
Encoding: 1636 1636 9
GlifName: uni0664
Width: 984
VWidth: 2150
GlyphClass: 2
Flags: HMW
LayerCount: 2
Fore
SplineSet
270 718 m 257
 175 765 129 851 129 963 c 0
 129 1274 451 1406 761 1445 c 257
 794 1141 l 257
 518 1101 450 1044 450 968 c 256
 450 899 501 861 802 861 c 257
 802 597 l 257
 576 597 386 571 386 424 c 256
 386 337 473 305 578 305 c 258
 934 305 l 257
 934 0 l 257
 578 0 l 258
 281 0 70 113 70 378 c 0
 70 525 135 636 270 718 c 257
EndSplineSet
PairPos2: "'kern' Horizontal Kerning in Arabic lookup 7 per glyph data 0" uni0666 dx=53 dy=0 dh=53 dv=0 dx=0 dy=0 dh=0 dv=0
EndChar

StartChar: uni0665
Encoding: 1637 1637 10
GlifName: uni0665
Width: 1229
VWidth: 2150
GlyphClass: 2
Flags: HMW
LayerCount: 2
Fore
SplineSet
511 1445 m 257
 816 1207 1169 912 1169 466 c 256
 1169 118 924 -21 617 -21 c 256
 323 -21 60 114 60 463 c 256
 60 709 204 936 421 1110 c 257
 394 1135 348 1175 312 1204 c 257
 511 1445 l 257
616 912 m 257
 432 749 375 602 375 478 c 256
 375 358 448 294 617 294 c 256
 784 294 854 349 854 480 c 256
 854 597 785 741 616 912 c 257
EndSplineSet
PairPos2: "'kern' Horizontal Kerning in Arabic lookup 7 per glyph data 0" uni0667 dx=-105 dy=0 dh=-105 dv=0 dx=0 dy=0 dh=0 dv=0
PairPos2: "'kern' Horizontal Kerning in Arabic lookup 7 per glyph data 0" uni0661 dx=53 dy=0 dh=53 dv=0 dx=0 dy=0 dh=0 dv=0
EndChar

StartChar: uni0666
Encoding: 1638 1638 11
GlifName: uni0666
Width: 1180
VWidth: 2150
GlyphClass: 2
Flags: HMW
LayerCount: 2
Fore
SplineSet
40 1138 m 257
 88 1450 l 257
 238 1431 400 1424 570 1424 c 256
 666 1424 758 1433 836 1447 c 257
 983 1316 l 257
 979 1211 975 1110 975 1004 c 256
 975 598 1019 408 1110 37 c 257
 803 -39 l 257
 708 344 660 575 660 1004 c 256
 660 1040 660 1075 660 1111 c 257
 628 1111 602 1111 570 1111 c 256
 383 1111 198 1116 40 1138 c 257
EndSplineSet
PairPos2: "'kern' Horizontal Kerning in Arabic lookup 7 per glyph data 0" uni0668 dx=-210 dy=0 dh=-210 dv=0 dx=0 dy=0 dh=0 dv=0
PairPos2: "'kern' Horizontal Kerning in Arabic lookup 7 per glyph data 0" uni066B dx=-158 dy=0 dh=-158 dv=0 dx=0 dy=0 dh=0 dv=0
PairPos2: "'kern' Horizontal Kerning in Arabic lookup 7 per glyph data 0" uni0660 dx=-210 dy=0 dh=-210 dv=0 dx=0 dy=0 dh=0 dv=0
PairPos2: "'kern' Horizontal Kerning in Arabic lookup 7 per glyph data 0" uni0665 dx=-184 dy=0 dh=-184 dv=0 dx=0 dy=0 dh=0 dv=0
PairPos2: "'kern' Horizontal Kerning in Arabic lookup 7 per glyph data 0" uni0664 dx=-53 dy=0 dh=-53 dv=0 dx=0 dy=0 dh=0 dv=0
EndChar

StartChar: uni0667
Encoding: 1639 1639 12
GlifName: uni0667
Width: 1345
VWidth: 2150
GlyphClass: 2
Flags: HMW
LayerCount: 2
Fore
SplineSet
1077 1445 m 257
 1325 1251 l 257
 1053 901 882 667 811 0 c 257
 535 0 l 257
 470 625 315 868 20 1252 c 257
 270 1444 l 257
 461 1199 608 949 673 611 c 257
 738 950 885 1200 1077 1445 c 257
EndSplineSet
PairPos2: "'kern' Horizontal Kerning in Arabic lookup 7 per glyph data 0" uni066B dx=-131 dy=0 dh=-131 dv=0 dx=0 dy=0 dh=0 dv=0
PairPos2: "'kern' Horizontal Kerning in Arabic lookup 7 per glyph data 0" uni0668 dx=-158 dy=0 dh=-158 dv=0 dx=0 dy=0 dh=0 dv=0
PairPos2: "'kern' Horizontal Kerning in Arabic lookup 7 per glyph data 0" uni0665 dx=-105 dy=0 dh=-105 dv=0 dx=0 dy=0 dh=0 dv=0
PairPos2: "'kern' Horizontal Kerning in Arabic lookup 7 per glyph data 0" uni0660 dx=-105 dy=0 dh=-105 dv=0 dx=0 dy=0 dh=0 dv=0
EndChar

StartChar: uni0668
Encoding: 1640 1640 13
GlifName: uni0668
Width: 1345
VWidth: 2150
GlyphClass: 2
Flags: HMW
LayerCount: 2
Fore
SplineSet
268 -21 m 257
 20 173 l 257
 292 523 463 757 534 1424 c 257
 810 1424 l 257
 875 799 1030 556 1325 172 c 257
 1075 -20 l 257
 884 225 737 476 672 814 c 257
 607 475 460 224 268 -21 c 257
EndSplineSet
PairPos2: "'kern' Horizontal Kerning in Arabic lookup 7 per glyph data 0" uni0667 dx=-158 dy=0 dh=-158 dv=0 dx=0 dy=0 dh=0 dv=0
PairPos2: "'kern' Horizontal Kerning in Arabic lookup 7 per glyph data 0" uni0662 dx=-184 dy=0 dh=-184 dv=0 dx=0 dy=0 dh=0 dv=0
PairPos2: "'kern' Horizontal Kerning in Arabic lookup 7 per glyph data 0" uni0663 dx=-210 dy=0 dh=-210 dv=0 dx=0 dy=0 dh=0 dv=0
EndChar

StartChar: uni0669
Encoding: 1641 1641 14
GlifName: uni0669
Width: 1127
VWidth: 2150
GlyphClass: 2
Flags: HMW
LayerCount: 2
Fore
SplineSet
610 542 m 1
 566 533 522 527 482 527 c 0
 271 527 50 619 50 924 c 0
 50 1156 160 1445 468 1445 c 0
 798 1445 891 1154 891 886 c 0
 891 705 902 548 925 420 c 0
 945 310 984 201 1027 105 c 1
 737 -21 l 1
 666 175 627 356 610 542 c 1
586 850 m 1
 586 895 l 2
 586 1066 530 1130 469 1130 c 0
 408 1130 344 1074 344 948 c 0
 344 864 373 840 476 840 c 0
 516 840 552 845 586 850 c 1
EndSplineSet
PairPos2: "'kern' Horizontal Kerning in Arabic lookup 7 per glyph data 0" uni0665 dx=-53 dy=0 dh=-53 dv=0 dx=0 dy=0 dh=0 dv=0
PairPos2: "'kern' Horizontal Kerning in Arabic lookup 7 per glyph data 0" uni0668 dx=-158 dy=0 dh=-158 dv=0 dx=0 dy=0 dh=0 dv=0
PairPos2: "'kern' Horizontal Kerning in Arabic lookup 7 per glyph data 0" uni066B dx=210 dy=0 dh=210 dv=0 dx=0 dy=0 dh=0 dv=0
EndChar

StartChar: uni06F4
Encoding: 1780 1780 19
GlifName: uni06F_4
Width: 1169
VWidth: 2150
GlyphClass: 2
Flags: HMW
LayerCount: 2
Fore
SplineSet
542 642 m 257
 579 386 589 255 589 0 c 257
 274 0 l 257
 274 524 171 897 40 1338 c 257
 349 1435 l 257
 382 1342 425 1195 451 1083 c 257
 491 1298 649 1445 837 1445 c 0
 930 1445 1029 1418 1109 1368 c 257
 987 1079 l 257
 928 1117 890 1131 812 1131 c 256
 712 1131 622 1061 622 956 c 256
 622 861 713 842 823 842 c 256
 908 842 994 853 1080 870 c 257
 1108 556 l 257
 1028 538 959 530 897 530 c 256
 766 530 631 560 542 642 c 257
EndSplineSet
PairPos2: "'kern' Horizontal Kerning in Arabic lookup 7 per glyph data 1" uni06F8 dx=-53 dy=0 dh=-53 dv=0 dx=0 dy=0 dh=0 dv=0
PairPos2: "'kern' Horizontal Kerning in Arabic lookup 7 per glyph data 1" uni06F0 dx=-26 dy=0 dh=-26 dv=0 dx=0 dy=0 dh=0 dv=0
EndChar

StartChar: uni06F5
Encoding: 1781 1781 20
GlifName: uni06F_5
Width: 1266
VWidth: 2150
GlyphClass: 2
Flags: HMW
LayerCount: 2
Fore
SplineSet
640 85 m 257
 592 8 524 -21 419 -21 c 256
 196 -21 50 132 50 383 c 256
 50 642 184 879 441 1123 c 257
 418 1144 361 1189 335 1209 c 257
 507 1445 l 257
 585 1391 663 1336 733 1273 c 256
 1030 1014 1216 705 1216 409 c 256
 1216 128 1074 -21 858 -21 c 256
 754 -21 697 8 640 85 c 257
583 439 m 257
 703 439 l 257
 718 383 l 258
 736 316 774 295 832 295 c 256
 875 295 923 318 923 417 c 256
 923 549 826 732 636 925 c 257
 412 732 343 552 343 431 c 256
 343 314 403 295 447 295 c 256
 510 295 553 321 568 380 c 258
 583 439 l 257
EndSplineSet
PairPos2: "'kern' Horizontal Kerning in Arabic lookup 7 per glyph data 1" uni06F9 dx=-79 dy=0 dh=-79 dv=0 dx=0 dy=0 dh=0 dv=0
PairPos2: "'kern' Horizontal Kerning in Arabic lookup 7 per glyph data 1" uni06F7 dx=-105 dy=0 dh=-105 dv=0 dx=0 dy=0 dh=0 dv=0
PairPos2: "'kern' Horizontal Kerning in Arabic lookup 7 per glyph data 1" uni06F3 dx=-26 dy=0 dh=-26 dv=0 dx=0 dy=0 dh=0 dv=0
PairPos2: "'kern' Horizontal Kerning in Arabic lookup 7 per glyph data 1" uni06F2 dx=-26 dy=0 dh=-26 dv=0 dx=0 dy=0 dh=0 dv=0
PairPos2: "'kern' Horizontal Kerning in Arabic lookup 7 per glyph data 1" uni06F1 dx=53 dy=0 dh=53 dv=0 dx=0 dy=0 dh=0 dv=0
EndChar

StartChar: uni06F6
Encoding: 1782 1782 21
GlifName: uni06F_6
Width: 1143
VWidth: 2150
GlyphClass: 2
Flags: HMW
LayerCount: 2
Fore
SplineSet
589 854 m 256
 716 854 839 924 931 981 c 257
 1113 720 l 257
 766 524 512 233 324 -42 c 257
 50 113 l 257
 175 302 272 425 411 567 c 257
 241 616 75 746 75 979 c 256
 75 1256 282 1475 556 1475 c 256
 750 1475 837 1409 944 1326 c 257
 749 1077 l 257
 694 1130 645 1159 556 1159 c 256
 453 1159 390 1089 390 991 c 256
 390 892 476 854 589 854 c 256
EndSplineSet
EndChar

StartChar: GAFbar
Encoding: 1114120 -1 44
GlifName: G_A_F_bar
Width: 1049
VWidth: 2150
GlyphClass: 2
Flags: HMW
LayerCount: 2
Fore
SplineSet
844 2125 m 257
 876 1971 l 257
 610 1916 338 1809 111 1664 c 257
 26 1796 l 257
 272 1954 559 2066 844 2125 c 257
EndSplineSet
EndChar

StartChar: uni060C
Encoding: 1548 1548 53
GlifName: uni060C_
Width: 581
VWidth: 2150
GlyphClass: 2
Flags: HMW
LayerCount: 2
Fore
SplineSet
477 181 m 256
 477 84 408 1 299 1 c 256
 188 1 105 79 105 247 c 256
 105 422 210 599 336 713 c 257
 438 618 l 257
 371 549 287 439 265 361 c 257
 370 361 477 302 477 181 c 256
EndSplineSet
EndChar

StartChar: uni0615
Encoding: 1557 1557 55
GlifName: uni0615
Width: 0
VWidth: 2150
GlyphClass: 4
Flags: HMW
AnchorPoint: "Anchor-1" 0 1296 mark 0
AnchorPoint: "Anchor-4" 0 1296 mark 0
AnchorPoint: "Anchor-5" 0 1296 mark 0
AnchorPoint: "Anchor-1" 0 1652 basemark 0
LayerCount: 2
Fore
SplineSet
300 1806 m 256
 300 1600 51 1596 -165 1594 c 258
 -300 1594 l 257
 -300 1720 l 257
 -195 1720 l 257
 -195 2154 l 257
 -69 2154 l 257
 -69 1892 l 257
 -8 1949 57 1979 124 1979 c 256
 219 1979 300 1911 300 1806 c 256
-45 1723 m 257
 140 1732 174 1764 174 1806 c 256
 174 1839 161 1853 124 1853 c 256
 85 1853 17 1820 -45 1723 c 257
EndSplineSet
EndChar

StartChar: less
Encoding: 60 60 57
GlifName: less
Width: 845
VWidth: 2150
GlyphClass: 2
Flags: HMW
LayerCount: 2
Fore
SplineSet
573 1232 m 257
 724 1078 l 257
 338 714 l 257
 724 350 l 257
 573 195 l 257
 26 714 l 257
 573 1232 l 257
EndSplineSet
EndChar

StartChar: greater
Encoding: 62 62 59
GlifName: greater
Width: 845
VWidth: 2150
GlyphClass: 2
Flags: HMW
LayerCount: 2
Fore
SplineSet
272 195 m 257
 122 350 l 257
 507 713 l 257
 122 1078 l 257
 272 1232 l 257
 819 713 l 257
 272 195 l 257
EndSplineSet
EndChar

StartChar: braceleft
Encoding: 123 123 60
GlifName: braceleft
Width: 899
VWidth: 2150
GlyphClass: 2
Flags: HMW
LayerCount: 2
Fore
SplineSet
458 712 m 257
 537 685 614 557 614 460 c 258
 614 307 l 258
 614 254 621 246 674 246 c 258
 794 246 l 257
 794 -21 l 257
 601 -21 l 258
 435 -21 299 95 299 254 c 258
 299 460 l 258
 299 521 264 555 215 569 c 258
 105 601 l 257
 105 823 l 257
 215 855 l 258
 264 869 299 903 299 964 c 258
 299 1170 l 258
 299 1329 435 1445 601 1445 c 258
 794 1445 l 257
 794 1178 l 257
 674 1178 l 258
 621 1178 614 1170 614 1117 c 258
 614 964 l 258
 614 867 538 738 458 712 c 257
EndSplineSet
EndChar

StartChar: braceright
Encoding: 125 125 61
GlifName: braceright
Width: 899
VWidth: 2150
GlyphClass: 2
Flags: HMW
LayerCount: 2
Fore
SplineSet
441 712 m 257
 362 739 285 867 285 964 c 258
 285 1117 l 258
 285 1170 278 1178 225 1178 c 258
 105 1178 l 257
 105 1445 l 257
 298 1445 l 258
 464 1445 600 1329 600 1170 c 258
 600 964 l 258
 600 903 635 869 684 855 c 258
 794 823 l 257
 794 601 l 257
 684 569 l 258
 635 555 600 521 600 460 c 258
 600 254 l 258
 600 95 464 -21 298 -21 c 258
 105 -21 l 257
 105 246 l 257
 225 246 l 258
 278 246 285 254 285 307 c 258
 285 460 l 258
 285 557 361 686 441 712 c 257
EndSplineSet
EndChar

StartChar: uni061F
Encoding: 1567 1567 64
GlifName: uni061F_
Width: 1120
VWidth: 2150
GlyphClass: 2
Flags: HMW
LayerCount: 2
Fore
SplineSet
578 318 m 256
 667 318 740 249 740 160 c 256
 740 71 667 0 578 0 c 256
 489 0 415 71 415 160 c 256
 415 249 489 318 578 318 c 256
723 448 m 1
 434 448 l 1
 434 576 357 646 278 712 c 0
 196 780 119 852 119 987 c 0
 119 1218 278 1445 565 1445 c 0
 852 1445 1002 1239 1002 1024 c 0
 1002 981 992 918 984 871 c 1
 708 905 l 1
 717 943 724 983 724 1024 c 0
 724 1124 675 1196 565 1196 c 0
 473 1196 407 1118 407 1035 c 0
 407 910 479 837 558 761 c 0
 640 682 723 598 723 448 c 1
EndSplineSet
EndChar

StartChar: uni066C
Encoding: 1644 1644 82
GlifName: uni066C_
Width: 616
VWidth: 2150
GlyphClass: 2
Flags: HMW
LayerCount: 2
Fore
SplineSet
215 -321 m 257
 126 -214 l 257
 202 -153 284 -75 316 0 c 257
 239 0 126 67 126 181 c 256
 126 278 198 364 297 364 c 256
 398 364 490 299 490 144 c 256
 490 -61 369 -212 215 -321 c 257
EndSplineSet
EndChar

StartChar: uni066D
Encoding: 1645 1645 83
GlifName: uni066D_
Width: 955
VWidth: 2150
GlyphClass: 2
Flags: HMW
LayerCount: 2
Fore
SplineSet
588 720 m 257
 368 720 l 257
 378 1005 l 257
 139 854 l 257
 27 1045 l 257
 279 1177 l 257
 27 1311 l 257
 139 1502 l 257
 378 1351 l 257
 368 1634 l 257
 588 1634 l 257
 578 1351 l 257
 817 1502 l 257
 928 1311 l 257
 676 1177 l 257
 928 1045 l 257
 817 854 l 257
 578 1005 l 257
 588 720 l 257
EndSplineSet
EndChar

StartChar: zero
Encoding: 48 48 133
GlifName: zero
Width: 1322
VWidth: 2150
GlyphClass: 2
Flags: HMW
LayerCount: 2
Fore
SplineSet
662 1445 m 256
 1168 1445 1217 998 1217 712 c 256
 1217 426 1168 -21 662 -21 c 256
 156 -21 105 426 105 712 c 256
 105 998 156 1445 662 1445 c 256
662 1176 m 256
 493 1176 420 1030 420 712 c 256
 420 394 493 246 662 246 c 256
 831 246 902 393 902 712 c 256
 902 1031 831 1176 662 1176 c 256
EndSplineSet
EndChar

StartChar: one
Encoding: 49 49 134
GlifName: one
Width: 1032
VWidth: 2150
GlyphClass: 2
Flags: HMW
LayerCount: 2
Fore
SplineSet
507 931 m 257
 461 925 414 919 361 919 c 258
 210 919 l 257
 210 1165 l 257
 444 1165 l 258
 501 1165 510 1174 510 1240 c 258
 507 1424 l 257
 822 1424 l 257
 822 0 l 257
 507 0 l 257
 507 931 l 257
EndSplineSet
EndChar

StartChar: two
Encoding: 50 50 135
GlifName: two
Width: 1118
VWidth: 2150
GlyphClass: 2
Flags: HMW
LayerCount: 2
Fore
SplineSet
1045 0 m 1
 74 0 l 1
 74 188 l 2
 74 492 261 596 446 671 c 0
 612 737 735 802 735 943 c 0
 735 1098 663 1174 541 1174 c 0
 407 1174 365 1068 365 919 c 1
 74 919 l 1
 74 1228 263 1443 560 1443 c 0
 834 1443 1045 1245 1045 974 c 0
 1045 685 835 575 662 498 c 0
 498 426 388 352 388 271 c 2
 388 267 l 1
 1045 267 l 1
 1045 0 l 1
EndSplineSet
EndChar

StartChar: three
Encoding: 51 51 136
GlifName: three
Width: 1192
VWidth: 2150
GlyphClass: 2
Flags: HMW
LayerCount: 2
Fore
SplineSet
63 476 m 1
 373 476 l 1
 373 316 410 248 572 248 c 0
 692 248 776 291 776 409 c 0
 776 543 698 608 565 608 c 2
 434 608 l 1
 434 860 l 1
 565 860 l 2
 673 860 741 923 741 1018 c 0
 741 1115 680 1176 585 1176 c 0
 444 1176 425 1106 425 968 c 1
 116 968 l 1
 116 1272 295 1445 585 1445 c 0
 801 1445 1042 1301 1042 1018 c 0
 1042 925 986 803 881 741 c 1
 988 690 1077 547 1077 409 c 0
 1077 124 849 -21 572 -21 c 0
 260 -21 63 150 63 476 c 1
EndSplineSet
EndChar

StartChar: four
Encoding: 52 52 137
GlifName: four
Width: 1259
VWidth: 2150
GlyphClass: 2
Flags: HMW
LayerCount: 2
Fore
SplineSet
668 558 m 257
 668 1035 l 257
 322 558 l 257
 668 558 l 257
1186 558 m 257
 1186 315 l 257
 983 315 l 257
 983 0 l 257
 668 0 l 257
 668 315 l 257
 74 315 l 1
 74 558 l 1
 689 1424 l 257
 983 1424 l 257
 983 558 l 257
 1186 558 l 257
EndSplineSet
EndChar

StartChar: five
Encoding: 53 53 138
GlifName: five
Width: 1204
VWidth: 2150
GlyphClass: 2
Flags: HMW
LayerCount: 2
Fore
SplineSet
105 443 m 1
 415 443 l 1
 415 313 445 248 588 248 c 0
 737 248 790 326 790 509 c 0
 790 676 730 757 570 757 c 0
 467 757 363 683 307 627 c 1
 114 723 l 1
 180 1424 l 1
 1078 1424 l 1
 1078 1174 l 1
 441 1174 l 1
 417 918 l 1
 497 966 580 988 660 988 c 0
 895 988 1100 815 1100 509 c 0
 1100 180 916 -21 570 -21 c 0
 272 -21 105 153 105 443 c 1
EndSplineSet
EndChar

StartChar: six
Encoding: 54 54 139
GlifName: six
Width: 1198
VWidth: 2150
GlyphClass: 2
Flags: HMW
LayerCount: 2
Fore
SplineSet
650 686 m 0
 567 686 475 658 409 607 c 1
 418 375 495 248 620 248 c 0
 764 248 815 341 815 475 c 0
 815 600 763 686 650 686 c 0
687 955 m 0
 920 955 1125 784 1125 495 c 0
 1125 195 930 -21 629 -21 c 0
 228 -21 105 321 105 697 c 0
 105 1118 299 1445 699 1445 c 0
 900 1445 1016 1357 1107 1247 c 1
 965 1081 l 1
 896 1139 793 1176 704 1176 c 0
 538 1176 432 1090 424 881 c 1
 509 931 601 955 687 955 c 0
EndSplineSet
EndChar

StartChar: seven
Encoding: 55 55 140
GlifName: seven
Width: 1112
VWidth: 2150
GlyphClass: 2
Flags: HMW
LayerCount: 2
Fore
SplineSet
63 1155 m 257
 63 1424 l 257
 840 1424 l 257
 1039 1225 l 257
 477 -46 l 257
 192 79 l 257
 680 1155 l 257
 63 1155 l 257
EndSplineSet
EndChar

StartChar: eight
Encoding: 56 56 141
GlifName: eight
Width: 1196
VWidth: 2150
GlyphClass: 2
Flags: HMW
LayerCount: 2
Fore
SplineSet
918 749 m 1
 1013 668 1091 542 1091 409 c 0
 1091 136 895 -21 599 -21 c 0
 303 -21 105 135 105 409 c 0
 105 542 184 669 277 750 c 1
 219 814 163 940 163 1049 c 0
 163 1233 308 1445 599 1445 c 0
 890 1445 1033 1232 1033 1049 c 0
 1033 940 977 813 918 749 c 1
415 426 m 0
 415 317 479 248 599 248 c 0
 719 248 781 317 781 426 c 0
 781 546 714 622 598 622 c 0
 477 622 415 550 415 426 c 0
747 1023 m 0
 747 1120 702 1190 599 1190 c 0
 496 1190 450 1120 450 1023 c 0
 450 923 498 858 598 858 c 0
 698 858 747 924 747 1023 c 0
EndSplineSet
EndChar

StartChar: nine
Encoding: 57 57 142
GlifName: nine
Width: 1198
VWidth: 2150
GlyphClass: 2
Flags: HMW
LayerCount: 2
Fore
SplineSet
580 738 m 0
 663 738 755 766 821 817 c 1
 812 1049 735 1176 610 1176 c 0
 466 1176 415 1083 415 949 c 0
 415 824 467 738 580 738 c 0
543 469 m 0
 310 469 105 640 105 929 c 0
 105 1229 300 1445 601 1445 c 0
 1002 1445 1125 1103 1125 727 c 0
 1125 306 930 -21 530 -21 c 0
 329 -21 214 67 123 177 c 1
 265 343 l 1
 334 285 437 248 526 248 c 0
 692 248 798 334 806 543 c 1
 721 493 629 469 543 469 c 0
EndSplineSet
EndChar

StartChar: exclam
Encoding: 33 33 240
GlifName: exclam
Width: 640
VWidth: 2150
GlyphClass: 2
Flags: HMW
LayerCount: 2
Fore
SplineSet
478 497 m 257
 163 497 l 257
 163 1424 l 257
 478 1424 l 257
 478 497 l 257
EndSplineSet
Refer: 0 46 N 1 0 0 1 32 0 2
EndChar

StartChar: uni066B
Encoding: 1643 1643 241
GlifName: uni066B_
Width: 826
VWidth: 2150
GlyphClass: 2
Flags: HMW
LayerCount: 2
Fore
SplineSet
310 -611 m 257
 17 -497 l 257
 526 803 l 257
 819 689 l 257
 310 -611 l 257
EndSplineSet
PairPos2: "'kern' Horizontal Kerning in Arabic lookup 7 per glyph data 1" uni066B dx=-53 dy=0 dh=-53 dv=0 dx=0 dy=0 dh=0 dv=0
PairPos2: "'kern' Horizontal Kerning in Arabic lookup 7 per glyph data 1" uni06F2 dx=-105 dy=0 dh=-105 dv=0 dx=0 dy=0 dh=0 dv=0
PairPos2: "'kern' Horizontal Kerning in Arabic lookup 7 per glyph data 1" uni06F3 dx=-79 dy=0 dh=-79 dv=0 dx=0 dy=0 dh=0 dv=0
PairPos2: "'kern' Horizontal Kerning in Arabic lookup 7 per glyph data 1" uni06F0 dx=-53 dy=0 dh=-53 dv=0 dx=0 dy=0 dh=0 dv=0
PairPos2: "'kern' Horizontal Kerning in Arabic lookup 7 per glyph data 1" uni06F7 dx=-105 dy=0 dh=-105 dv=0 dx=0 dy=0 dh=0 dv=0
PairPos2: "'kern' Horizontal Kerning in Arabic lookup 7 per glyph data 0" uni0667 dx=-105 dy=0 dh=-105 dv=0 dx=0 dy=0 dh=0 dv=0
PairPos2: "'kern' Horizontal Kerning in Arabic lookup 7 per glyph data 0" uni0662 dx=-105 dy=0 dh=-105 dv=0 dx=0 dy=0 dh=0 dv=0
PairPos2: "'kern' Horizontal Kerning in Arabic lookup 7 per glyph data 0" uni0663 dx=-158 dy=0 dh=-158 dv=0 dx=0 dy=0 dh=0 dv=0
EndChar

StartChar: uniE000
Encoding: 57344 57344 242
GlifName: uniE_000
Width: 105
VWidth: 2150
GlyphClass: 2
Flags: HMW
LayerCount: 2
Fore
SplineSet
0 315 m 258
 105 315 l 257
 105 0 l 257
 0 0 l 258
 -87 0 -158 71 -158 158 c 256
 -158 245 -87 315 0 315 c 258
EndSplineSet
EndChar

StartChar: uniE001
Encoding: 57345 57345 243
GlifName: uniE_001
Width: 315
VWidth: 2150
GlyphClass: 2
Flags: HMW
LayerCount: 2
Fore
SplineSet
0 315 m 258
 315 315 l 257
 315 0 l 257
 0 0 l 258
 -87 0 -158 71 -158 158 c 256
 -158 245 -87 315 0 315 c 258
EndSplineSet
EndChar

StartChar: uniE002
Encoding: 57346 57346 244
GlifName: uniE_002
Width: 441
VWidth: 2150
GlyphClass: 2
Flags: HMW
LayerCount: 2
Fore
SplineSet
0 315 m 258
 441 315 l 257
 441 0 l 257
 0 0 l 258
 -87 0 -158 71 -158 158 c 256
 -158 245 -87 315 0 315 c 258
EndSplineSet
EndChar

StartChar: simpledot
Encoding: 1114127 -1 245
GlifName: simpledot
Width: 2867
VWidth: 2150
GlyphClass: 2
Flags: HMW
LayerCount: 2
Fore
SplineSet
1070 214 m 257
 1247 392 l 257
 1424 214 l 257
 1247 36 l 257
 1070 214 l 257
EndSplineSet
EndChar

StartChar: hyphen
Encoding: 45 45 246
GlifName: hyphen
Width: 1000
VWidth: 2150
GlyphClass: 2
Flags: HMW
LayerCount: 2
Fore
SplineSet
927 725 m 257
 927 498 l 257
 74 498 l 257
 74 725 l 257
 927 725 l 257
EndSplineSet
EndChar

StartChar: numbersign
Encoding: 35 35 248
GlifName: numbersign
Width: 1830
VWidth: 2150
GlyphClass: 2
Flags: HMW
LayerCount: 2
Back
SplineSet
1673.05859375 867.51171875 m 257
 252.061523438 867.51171875 l 257
 252.061523438 1081.76367188 l 257
 1673.05859375 1081.76367188 l 257
 1673.05859375 867.51171875 l 257
1578.53515625 362.338867188 m 257
 157.538085938 362.338867188 l 257
 157.538085938 576.590820312 l 257
 1578.53515625 576.590820312 l 257
 1578.53515625 362.338867188 l 257
1246.65429688 1424.14746094 m 257
 1521.82128906 1424.14746094 l 257
 1129.02539062 0 l 257
 852.80859375 0 l 257
 1246.65429688 1424.14746094 l 257
687.91796875 1424.14746094 m 257
 963.084960938 1424.14746094 l 257
 570.2890625 0 l 257
 294.072265625 0 l 257
 687.91796875 1424.14746094 l 257
EndSplineSet
Fore
SplineSet
1092 868 m 1
 810 868 l 1
 729 577 l 1
 1012 577 l 1
 1092 868 l 1
570 0 m 1
 294 0 l 1
 394 362 l 1
 158 362 l 1
 158 577 l 1
 454 577 l 1
 534 868 l 1
 252 868 l 1
 252 1082 l 1
 593 1082 l 1
 688 1424 l 1
 963 1424 l 1
 869 1082 l 1
 1152 1082 l 1
 1247 1424 l 1
 1522 1424 l 1
 1427 1082 l 1
 1673 1082 l 1
 1673 868 l 1
 1368 868 l 1
 1288 577 l 1
 1579 577 l 1
 1579 362 l 1
 1229 362 l 1
 1129 0 l 1
 853 0 l 1
 953 362 l 1
 670 362 l 1
 570 0 l 1
EndSplineSet
EndChar

StartChar: ampersand
Encoding: 38 38 251
GlifName: ampersand
Width: 1132
VWidth: 2150
GlyphClass: 2
Flags: HMW
LayerCount: 2
Fore
SplineSet
331 741 m 5
 284 798 l 6
 215 880 181 975 181 1067 c 4
 181 1242 319 1445 591 1445 c 4
 854 1445 1009 1258 1009 1085 c 4
 1009 910 882 777 761 688 c 5
 917 505 l 5
 1007 632 l 5
 1247 460 l 5
 1114 276 l 5
 1226 145 l 5
 1001 -40 l 5
 904 72 l 5
 805 9 688 -21 559 -21 c 4
 322 -21 105 126 105 369 c 4
 105 537 217 656 331 741 c 5
515 527 m 5
 445 471 415 424 415 369 c 4
 415 274 468 244 559 244 c 4
 637 244 676 257 720 286 c 5
 515 527 l 5
578 902 m 5
 634 947 699 1008 699 1085 c 4
 699 1144 656 1180 591 1180 c 4
 523 1180 490 1137 490 1067 c 4
 490 1029 506 988 534 954 c 6
 578 902 l 5
EndSplineSet
EndChar

StartChar: quotesingle
Encoding: 39 39 252
GlifName: quotesingle
Width: 420
VWidth: 2150
GlyphClass: 2
Flags: HMW
LayerCount: 2
Fore
SplineSet
116 1424 m 257
 305 1424 l 257
 305 862 l 257
 116 862 l 257
 116 1424 l 257
EndSplineSet
EndChar

StartChar: plus
Encoding: 43 43 253
GlifName: plus
Width: 1000
VWidth: 2150
GlyphClass: 2
Flags: HMW
LayerCount: 2
Fore
SplineSet
927 683 m 257
 927 456 l 257
 626 456 l 257
 626 143 l 257
 374 143 l 257
 374 456 l 257
 74 456 l 257
 74 683 l 257
 374 683 l 257
 374 996 l 257
 626 996 l 257
 626 683 l 257
 927 683 l 257
EndSplineSet
EndChar

StartChar: comma
Encoding: 44 44 254
GlifName: comma
Width: 640
VWidth: 2150
GlyphClass: 2
Flags: HMW
LayerCount: 2
Fore
SplineSet
139 209 m 256
 139 306 211 392 310 392 c 256
 411 392 503 327 503 172 c 256
 503 -33 382 -184 228 -293 c 257
 139 -186 l 257
 215 -125 297 -47 329 28 c 257
 252 28 139 95 139 209 c 256
EndSplineSet
EndChar

StartChar: question
Encoding: 63 63 256
GlifName: question
Width: 1120
VWidth: 2150
GlyphClass: 2
Flags: HMW
LayerCount: 2
Fore
SplineSet
543 0 m 256
 454 0 380 71 380 160 c 256
 380 249 454 318 543 318 c 256
 632 318 706 249 706 160 c 256
 706 71 632 0 543 0 c 256
413 905 m 1
 137 871 l 1
 129 918 119 981 119 1024 c 0
 119 1239 269 1445 556 1445 c 0
 843 1445 1002 1218 1002 987 c 0
 1002 852 924 780 842 712 c 0
 763 646 687 576 687 448 c 1
 398 448 l 1
 398 598 481 682 563 761 c 0
 642 837 713 910 713 1035 c 0
 713 1118 648 1196 556 1196 c 0
 446 1196 397 1124 397 1024 c 0
 397 983 404 943 413 905 c 1
EndSplineSet
EndChar

StartChar: at
Encoding: 64 64 257
GlifName: at
Width: 2175
VWidth: 2150
GlyphClass: 2
Flags: HMW
LayerCount: 2
Fore
SplineSet
1102 852 m 0
 994 852 850 757 850 479 c 0
 850 326 902 230 1027 230 c 0
 1090 230 1202 284 1220 505 c 2
 1247 823 l 1
 1215 840 1180 852 1102 852 c 0
1102 1102 m 0
 1331 1102 1437 1014 1546 924 c 1
 1498 371 l 2
 1496 351 1495 332 1495 325 c 0
 1495 238 1537 202 1617 202 c 0
 1720 202 1827 315 1827 548 c 0
 1827 973 1483 1301 1088 1301 c 0
 693 1301 348 973 348 548 c 0
 348 123 690 -203 1088 -203 c 0
 1178 -203 1264 -186 1342 -159 c 1
 1404 -317 l 1
 1308 -351 1201 -371 1088 -371 c 0
 564 -371 158 49 158 548 c 0
 158 1047 563 1467 1088 1467 c 0
 1613 1467 2018 1046 2018 548 c 0
 2018 307 1890 -19 1554 -19 c 0
 1450 -19 1364 20 1305 78 c 1
 1225 15 1129 -19 1027 -19 c 0
 791 -19 561 144 561 479 c 0
 561 853 796 1102 1102 1102 c 0
EndSplineSet
EndChar

StartChar: A
Encoding: 65 65 258
GlifName: A_
Width: 1397
VWidth: 2150
GlyphClass: 2
Flags: HMW
LayerCount: 2
Fore
SplineSet
445 315 m 1
 336 0 l 1
 0 0 l 1
 527 1424 l 1
 872 1424 l 1
 1398 0 l 1
 1062 0 l 1
 953 315 l 1
 445 315 l 1
531 561 m 1
 868 561 l 1
 699 1046 l 1
 531 561 l 1
EndSplineSet
EndChar

StartChar: B
Encoding: 66 66 259
GlifName: B_
Width: 1361
VWidth: 2150
GlyphClass: 2
Flags: HMW
LayerCount: 2
Fore
SplineSet
137 1424 m 257
 677 1424 l 258
 962 1424 1190 1266 1190 994 c 256
 1190 877 1151 799 1066 743 c 257
 1195 682 1256 571 1256 423 c 256
 1256 149 1024 0 744 0 c 258
 137 0 l 257
 137 1424 l 257
452 588 m 257
 452 267 l 257
 744 267 l 258
 854 267 941 305 941 423 c 256
 941 544 849 588 744 588 c 258
 452 588 l 257
677 836 m 258
 787 836 875 876 875 994 c 256
 875 1113 784 1155 677 1155 c 258
 452 1155 l 257
 452 836 l 257
 677 836 l 258
EndSplineSet
EndChar

StartChar: C
Encoding: 67 67 260
GlifName: C_
Width: 1426
VWidth: 2150
GlyphClass: 2
Flags: HMW
LayerCount: 2
Fore
SplineSet
1072 457 m 1
 1317 340 l 1
 1228 137 1047 -21 757 -21 c 256
 322 -21 89 321 89 712 c 256
 89 1103 322 1445 757 1445 c 256
 1047 1445 1228 1287 1317 1084 c 1
 1072 967 l 1
 1015 1099 912 1176 759 1176 c 256
 547 1176 404 1019 404 712 c 256
 404 405 547 248 759 248 c 256
 912 248 1015 325 1072 457 c 1
EndSplineSet
EndChar

StartChar: D
Encoding: 68 68 261
GlifName: D_
Width: 1383
VWidth: 2150
GlyphClass: 2
Flags: HMW
LayerCount: 2
Fore
SplineSet
1294 712 m 256
 1294 336 1106 0 630 0 c 258
 137 0 l 257
 137 1424 l 257
 630 1424 l 258
 1106 1424 1294 1088 1294 712 c 256
979 712 m 256
 979 1025 884 1155 630 1155 c 258
 452 1155 l 257
 452 267 l 257
 630 267 l 258
 884 267 979 398 979 712 c 256
EndSplineSet
EndChar

StartChar: E
Encoding: 69 69 262
GlifName: E_
Width: 1103
VWidth: 2150
GlyphClass: 2
Flags: HMW
LayerCount: 2
Fore
SplineSet
1062 267 m 257
 1062 0 l 257
 137 0 l 257
 137 1424 l 257
 1062 1424 l 257
 1062 1155 l 257
 452 1155 l 257
 452 836 l 257
 1009 836 l 257
 1009 588 l 257
 452 588 l 257
 452 267 l 257
 1062 267 l 257
EndSplineSet
EndChar

StartChar: F
Encoding: 70 70 263
GlifName: F_
Width: 1103
VWidth: 2150
GlyphClass: 2
Flags: HMW
LayerCount: 2
Fore
SplineSet
452 0 m 257
 137 0 l 257
 137 1424 l 257
 1062 1424 l 257
 1062 1155 l 257
 452 1155 l 257
 452 794 l 257
 940 794 l 257
 940 546 l 257
 452 546 l 257
 452 0 l 257
EndSplineSet
EndChar

StartChar: G
Encoding: 71 71 264
GlifName: G_
Width: 1517
VWidth: 2150
GlyphClass: 2
Flags: HMW
LayerCount: 2
Fore
SplineSet
709 803 m 1
 1402 807 l 1
 1402 563 l 2
 1402 246 1238 -21 802 -21 c 0
 339 -21 105 322 105 712 c 0
 105 1103 338 1445 773 1445 c 0
 1063 1445 1244 1288 1333 1084 c 1
 1088 967 l 1
 1031 1099 928 1176 775 1176 c 0
 563 1176 420 1019 420 712 c 0
 420 405 560 248 810 248 c 0
 1007 248 1087 352 1087 506 c 2
 1087 548 l 1
 713 548 l 1
 709 803 l 1
EndSplineSet
EndChar

StartChar: H
Encoding: 72 72 265
GlifName: H_
Width: 1448
VWidth: 2150
GlyphClass: 2
Flags: HMW
LayerCount: 2
Fore
SplineSet
997 1424 m 257
 1312 1424 l 257
 1312 0 l 257
 997 0 l 257
 997 611 l 257
 452 611 l 257
 452 0 l 257
 137 0 l 257
 137 1424 l 257
 452 1424 l 257
 452 859 l 257
 997 859 l 257
 997 1424 l 257
EndSplineSet
EndChar

StartChar: I
Encoding: 73 73 266
GlifName: I_
Width: 651
VWidth: 2150
GlyphClass: 2
Flags: HMW
LayerCount: 2
Fore
SplineSet
483 0 m 257
 168 0 l 257
 168 1424 l 257
 483 1424 l 257
 483 0 l 257
EndSplineSet
EndChar

StartChar: J
Encoding: 74 74 267
GlifName: J_
Width: 981
VWidth: 2150
GlyphClass: 2
Flags: HMW
LayerCount: 2
Fore
SplineSet
42 68 m 257
 148 294 l 257
 213 262 276 246 332 246 c 256
 448 246 530 317 530 475 c 258
 530 1424 l 257
 845 1424 l 257
 845 475 l 258
 845 136 612 -21 363 -21 c 256
 253 -21 140 8 42 68 c 257
EndSplineSet
EndChar

StartChar: K
Encoding: 75 75 268
GlifName: K_
Width: 1365
VWidth: 2150
GlyphClass: 2
Flags: HMW
LayerCount: 2
Fore
SplineSet
985 1424 m 257
 1355 1424 l 257
 762 711 l 257
 1355 0 l 257
 985 0 l 257
 592 501 l 257
 452 318 l 257
 452 0 l 257
 137 0 l 257
 137 1424 l 257
 452 1424 l 257
 452 774 l 257
 985 1424 l 257
EndSplineSet
EndChar

StartChar: L
Encoding: 76 76 269
GlifName: L_
Width: 1103
VWidth: 2150
GlyphClass: 2
Flags: HMW
LayerCount: 2
Fore
SplineSet
1062 267 m 257
 1062 0 l 257
 137 0 l 257
 137 1424 l 257
 452 1424 l 257
 452 267 l 257
 1062 267 l 257
EndSplineSet
EndChar

StartChar: M
Encoding: 77 77 270
GlifName: M_
Width: 1821
VWidth: 2150
GlyphClass: 2
Flags: HMW
LayerCount: 2
Fore
SplineSet
452 0 m 257
 137 0 l 257
 137 1424 l 257
 504 1424 l 257
 911 310 l 257
 1317 1424 l 257
 1685 1424 l 257
 1685 0 l 257
 1370 0 l 257
 1370 908 l 257
 1060 0 l 257
 761 0 l 257
 452 908 l 257
 452 0 l 257
EndSplineSet
EndChar

StartChar: N
Encoding: 78 78 271
GlifName: N_
Width: 1466
VWidth: 2150
GlyphClass: 2
Flags: HMW
LayerCount: 2
Fore
SplineSet
1015 1424 m 257
 1330 1424 l 257
 1330 0 l 257
 1030 0 l 257
 452 892 l 257
 452 0 l 257
 137 0 l 257
 137 1424 l 257
 436 1424 l 257
 1015 531 l 257
 1015 1424 l 257
EndSplineSet
EndChar

StartChar: O
Encoding: 79 79 272
GlifName: O_
Width: 1545
VWidth: 2150
GlyphClass: 2
Flags: HMW
LayerCount: 2
Fore
SplineSet
773 1445 m 256
 1224 1445 1457 1103 1457 712 c 256
 1457 321 1224 -21 773 -21 c 256
 322 -21 89 321 89 712 c 256
 89 1103 322 1445 773 1445 c 256
773 1176 m 256
 547 1176 404 1019 404 712 c 256
 404 405 547 246 773 246 c 256
 999 246 1142 405 1142 712 c 256
 1142 1019 999 1176 773 1176 c 256
EndSplineSet
EndChar

StartChar: P
Encoding: 80 80 273
GlifName: P_
Width: 1331
VWidth: 2150
GlyphClass: 2
Flags: HMW
LayerCount: 2
Fore
SplineSet
452 0 m 257
 137 0 l 257
 137 1424 l 257
 709 1424 l 258
 994 1424 1242 1268 1242 975 c 256
 1242 680 990 525 709 525 c 258
 452 525 l 257
 452 0 l 257
452 1155 m 257
 452 794 l 257
 709 794 l 258
 819 794 927 815 927 975 c 256
 927 1136 816 1155 709 1155 c 258
 452 1155 l 257
EndSplineSet
EndChar

StartChar: R
Encoding: 82 82 275
GlifName: R_
Width: 1331
VWidth: 2150
GlyphClass: 2
Flags: HMW
LayerCount: 2
Fore
SplineSet
959 693 m 257
 1321 0 l 257
 1006 0 l 257
 681 693 l 257
 959 693 l 257
452 0 m 257
 137 0 l 257
 137 1424 l 257
 709 1424 l 258
 994 1424 1242 1268 1242 975 c 256
 1242 680 990 525 709 525 c 258
 452 525 l 257
 452 0 l 257
452 1155 m 257
 452 794 l 257
 709 794 l 258
 819 794 927 815 927 975 c 256
 927 1136 816 1155 709 1155 c 258
 452 1155 l 257
EndSplineSet
EndChar

StartChar: S
Encoding: 83 83 276
GlifName: S_
Width: 1233
VWidth: 2150
GlyphClass: 2
Flags: HMW
LayerCount: 2
Fore
SplineSet
84 483 m 1
 394 483 l 1
 394 328 466 248 629 248 c 0
 749 248 839 302 839 412 c 0
 839 508 682 552 584 579 c 0
 379 636 110 747 110 1030 c 0
 110 1299 362 1445 605 1445 c 0
 916 1445 1123 1250 1123 940 c 1
 813 940 l 1
 813 1090 760 1175 605 1175 c 0
 494 1175 420 1125 420 1022 c 0
 420 924 576 879 675 852 c 0
 880 795 1149 682 1149 394 c 0
 1149 104 858 -21 629 -21 c 0
 306 -21 84 162 84 483 c 1
EndSplineSet
EndChar

StartChar: T
Encoding: 84 84 277
GlifName: T_
Width: 1302
VWidth: 2150
GlyphClass: 2
Flags: HMW
LayerCount: 2
Fore
SplineSet
809 0 m 257
 494 0 l 257
 494 1155 l 257
 42 1155 l 257
 42 1424 l 257
 1260 1424 l 257
 1260 1155 l 257
 809 1155 l 257
 809 0 l 257
EndSplineSet
EndChar

StartChar: U
Encoding: 85 85 278
GlifName: U_
Width: 1455
VWidth: 2150
GlyphClass: 2
Flags: HMW
LayerCount: 2
Fore
SplineSet
1009 1424 m 257
 1324 1424 l 257
 1324 557 l 258
 1324 215 1095 -21 728 -21 c 256
 361 -21 131 215 131 557 c 258
 131 1424 l 257
 446 1424 l 257
 446 536 l 258
 446 350 526 246 728 246 c 256
 930 246 1009 350 1009 536 c 258
 1009 1424 l 257
EndSplineSet
EndChar

StartChar: V
Encoding: 86 86 279
GlifName: V_
Width: 1397
VWidth: 2150
GlyphClass: 2
Flags: HMW
LayerCount: 2
Fore
SplineSet
1062 1424 m 1
 1398 1424 l 1
 871 0 l 1
 526 0 l 1
 0 1424 l 1
 336 1424 l 1
 698 378 l 1
 1062 1424 l 1
EndSplineSet
EndChar

StartChar: W
Encoding: 87 87 280
GlifName: W_
Width: 1987
VWidth: 2150
GlyphClass: 2
Flags: HMW
LayerCount: 2
Fore
SplineSet
1629 1424 m 257
 1956 1424 l 257
 1542 0 l 257
 1235 0 l 257
 994 961 l 257
 751 0 l 257
 444 0 l 257
 32 1424 l 257
 358 1424 l 257
 598 463 l 257
 840 1424 l 257
 1147 1424 l 257
 1388 463 l 257
 1629 1424 l 257
EndSplineSet
EndChar

StartChar: X
Encoding: 88 88 281
GlifName: X_
Width: 1411
VWidth: 2150
GlyphClass: 2
Flags: HMW
LayerCount: 2
Fore
SplineSet
1401 0 m 257
 1031 0 l 257
 706 481 l 257
 380 0 l 257
 11 0 l 257
 542 711 l 257
 11 1424 l 257
 380 1424 l 257
 706 942 l 257
 1031 1424 l 257
 1401 1424 l 257
 870 711 l 257
 1401 0 l 257
EndSplineSet
EndChar

StartChar: Y
Encoding: 89 89 282
GlifName: Y_
Width: 1383
VWidth: 2150
GlyphClass: 2
Flags: HMW
LayerCount: 2
Fore
SplineSet
1019 1424 m 257
 1383 1424 l 257
 850 583 l 257
 850 0 l 257
 535 0 l 257
 535 583 l 257
 0 1424 l 257
 365 1424 l 257
 692 842 l 257
 1019 1424 l 257
EndSplineSet
EndChar

StartChar: Z
Encoding: 90 90 283
GlifName: Z_
Width: 1239
VWidth: 2150
GlyphClass: 2
Flags: HMW
LayerCount: 2
Fore
SplineSet
63 1155 m 257
 63 1424 l 257
 1176 1424 l 257
 1176 1200 l 257
 422 267 l 257
 1176 267 l 257
 1176 0 l 257
 63 0 l 257
 63 223 l 257
 817 1155 l 257
 63 1155 l 257
EndSplineSet
EndChar

StartChar: bracketleft
Encoding: 91 91 284
GlifName: bracketleft
Width: 674
VWidth: 2150
GlyphClass: 2
Flags: HMW
LayerCount: 2
Fore
SplineSet
622 246 m 257
 622 -21 l 257
 74 -21 l 257
 74 1445 l 257
 622 1445 l 257
 622 1176 l 257
 389 1176 l 257
 389 246 l 257
 622 246 l 257
EndSplineSet
EndChar

StartChar: backslash
Encoding: 92 92 285
GlifName: backslash
Width: 1070
VWidth: 2150
GlyphClass: 2
Flags: HMW
LayerCount: 2
Fore
SplineSet
1077 100 m 257
 796 -84 l 257
 -6 1281 l 257
 274 1465 l 257
 1077 100 l 257
EndSplineSet
EndChar

StartChar: bracketright
Encoding: 93 93 286
GlifName: bracketright
Width: 674
VWidth: 2150
GlyphClass: 2
Flags: HMW
LayerCount: 2
Fore
SplineSet
53 1176 m 257
 53 1445 l 257
 601 1445 l 257
 601 -21 l 257
 53 -21 l 257
 53 246 l 257
 286 246 l 257
 286 1176 l 257
 53 1176 l 257
EndSplineSet
EndChar

StartChar: asciicircum
Encoding: 94 94 287
GlifName: asciicircum
Width: 739
VWidth: 2150
GlyphClass: 2
Flags: HMW
LayerCount: 2
Fore
SplineSet
669 1096 m 257
 570 1019 l 257
 370 1273 l 257
 169 1019 l 257
 70 1096 l 257
 318 1410 l 257
 421 1410 l 257
 669 1096 l 257
EndSplineSet
EndChar

StartChar: underscore
Encoding: 95 95 288
GlifName: underscore
Width: 699
VWidth: 2150
GlyphClass: 2
Flags: HMW
LayerCount: 2
Fore
SplineSet
752 312 m 257
 752 -3 l 257
 -53 -3 l 257
 -53 312 l 257
 752 312 l 257
EndSplineSet
EndChar

StartChar: grave
Encoding: 96 96 289
GlifName: grave
Width: 550
VWidth: 2150
GlyphClass: 2
Flags: HMW
LayerCount: 2
Fore
SplineSet
438 1116 m 257
 332 1048 l 257
 112 1398 l 257
 218 1466 l 257
 438 1116 l 257
EndSplineSet
EndChar

StartChar: a
Encoding: 97 97 290
GlifName: a
Width: 1062
VWidth: 2150
GlyphClass: 2
Flags: HMW
LayerCount: 2
Fore
SplineSet
958 601 m 258
 958 0 l 257
 643 0 l 257
 643 592 l 258
 643 710 615 809 492 809 c 256
 389 809 347 724 325 673 c 257
 98 781 l 257
 151 917 272 1048 507 1048 c 256
 749 1048 958 910 958 601 c 258
EndSplineSet
Refer: 423 57355 N 1 0 0 1 -34 0 2
EndChar

StartChar: b
Encoding: 98 98 291
GlifName: b
Width: 1221
VWidth: 2150
GlyphClass: 2
Flags: HMW
LayerCount: 2
Fore
SplineSet
441 0 m 257
 126 0 l 257
 126 1529 l 257
 441 1529 l 257
 441 0 l 257
EndSplineSet
Refer: 427 57359 N 1 0 0 1 53 0 2
EndChar

StartChar: c
Encoding: 99 99 292
GlifName: c
Width: 1053
VWidth: 2150
GlyphClass: 2
Flags: HMW
LayerCount: 2
Fore
SplineSet
566 206 m 256
 653 206 716 281 738 362 c 1
 990 289 l 1
 949 128 794 -21 564 -21 c 256
 226 -21 63 261 63 513 c 256
 63 765 226 1048 564 1048 c 256
 794 1048 949 897 990 736 c 1
 738 663 l 1
 716 744 653 819 566 819 c 256
 454 819 378 705 378 513 c 256
 378 321 454 206 566 206 c 256
EndSplineSet
EndChar

StartChar: d
Encoding: 100 100 293
GlifName: d
Width: 1221
VWidth: 2150
GlyphClass: 2
Flags: HMW
LayerCount: 2
Fore
SplineSet
1095 0 m 257
 780 0 l 257
 780 1529 l 257
 1095 1529 l 257
 1095 0 l 257
EndSplineSet
Refer: 427 57359 N -1 0 0 -1 1169 1027 2
EndChar

StartChar: e
Encoding: 101 101 294
GlifName: e
Width: 1095
VWidth: 2150
GlyphClass: 2
Flags: HMW
LayerCount: 2
Fore
SplineSet
378 447 m 17
 391 319 455 206 566 206 c 0
 653 206 716 281 738 362 c 1
 990 289 l 1
 949 128 794 -21 564 -21 c 0
 226 -21 63 261 63 513 c 0
 63 765 236 1048 562 1048 c 0
 869 1048 1032 763 1032 465 c 2
 1032 447 l 1
 378 447 l 17
385 621 m 1
 745 621 l 1
 723 733 664 819 566 819 c 0
 475 819 407 754 385 621 c 1
EndSplineSet
EndChar

StartChar: f
Encoding: 102 102 295
GlifName: f
Width: 751
VWidth: 2150
GlyphClass: 2
Flags: HMW
LayerCount: 2
Fore
SplineSet
720 1529 m 257
 720 1304 l 257
 531 1304 l 258
 506 1304 494 1291 494 1265 c 258
 494 0 l 257
 179 0 l 257
 179 1201 l 258
 179 1373 321 1529 521 1529 c 257
 720 1529 l 257
EndSplineSet
Refer: 422 57354 N 1 0 0 1 -53 287 2
EndChar

StartChar: g
Encoding: 103 103 296
GlifName: g
Width: 1231
VWidth: 2150
GlyphClass: 2
Flags: HMW
LayerCount: 2
Fore
SplineSet
791 1027 m 257
 1106 1027 l 257
 1106 125 l 258
 1106 -281 874 -452 559 -452 c 256
 369 -452 203 -410 87 -341 c 257
 179 -106 l 257
 264 -149 392 -186 509 -186 c 0
 659 -186 791 -125 791 59 c 258
 791 1027 l 257
EndSplineSet
Refer: 427 57359 N -1 0 0 -1 1179 1026 2
EndChar

StartChar: h
Encoding: 104 104 297
GlifName: h
Width: 1216
VWidth: 2150
GlyphClass: 2
Flags: HMW
LayerCount: 2
Fore
SplineSet
431 0 m 257
 116 0 l 257
 116 1529 l 257
 431 1529 l 257
 431 0 l 257
EndSplineSet
Refer: 425 57357 N 1 0 0 1 63 0 2
EndChar

StartChar: k
Encoding: 107 107 300
GlifName: k
Width: 1161
VWidth: 2150
GlyphClass: 2
Flags: HMW
LayerCount: 2
Fore
SplineSet
757 1027 m 1
 1151 1027 l 1
 727 535 l 1
 1151 0 l 1
 757 0 l 1
 553 336 l 1
 439 209 l 1
 439 0 l 1
 126 0 l 1
 126 1529 l 1
 439 1529 l 1
 439 602 l 1
 757 1027 l 1
EndSplineSet
EndChar

StartChar: l
Encoding: 108 108 301
GlifName: l
Width: 588
VWidth: 2150
GlyphClass: 2
Flags: HMW
LayerCount: 2
Fore
SplineSet
452 0 m 257
 137 0 l 257
 137 1529 l 257
 452 1529 l 257
 452 0 l 257
EndSplineSet
EndChar

StartChar: m
Encoding: 109 109 302
GlifName: m
Width: 1823
VWidth: 2150
GlyphClass: 2
Flags: HMW
LayerCount: 2
Fore
SplineSet
126 1027 m 257
 441 1027 l 257
 441 0 l 257
 126 0 l 257
 126 1027 l 257
EndSplineSet
Refer: 424 57356 N 1 0 0 1 -523 0 2
Refer: 424 57356 N 1 0 0 1 116 0 2
EndChar

StartChar: n
Encoding: 110 110 303
GlifName: n
Width: 1216
VWidth: 2150
GlyphClass: 2
Flags: HMW
LayerCount: 2
Fore
SplineSet
431 0 m 257
 116 0 l 257
 116 1027 l 257
 431 1027 l 257
 431 0 l 257
EndSplineSet
Refer: 425 57357 N 1 0 0 1 63 0 2
EndChar

StartChar: o
Encoding: 111 111 304
GlifName: o
Width: 1148
VWidth: 2150
GlyphClass: 2
Flags: HMW
LayerCount: 2
Fore
SplineSet
574 819 m 256
 458 819 383 705 383 513 c 256
 383 321 457 207 574 207 c 256
 691 207 766 321 766 513 c 256
 766 705 690 819 574 819 c 256
574 1048 m 256
 917 1048 1081 765 1081 513 c 256
 1081 261 916 -20 574 -20 c 256
 232 -20 68 261 68 513 c 256
 68 765 231 1048 574 1048 c 256
EndSplineSet
EndChar

StartChar: p
Encoding: 112 112 305
GlifName: p
Width: 1221
VWidth: 2150
GlyphClass: 2
Flags: HMW
LayerCount: 2
Fore
SplineSet
126 1027 m 257
 441 1027 l 257
 441 -431 l 257
 126 -431 l 257
 126 1027 l 257
EndSplineSet
Refer: 427 57359 N 1 0 0 1 53 0 2
EndChar

StartChar: q
Encoding: 113 113 306
GlifName: q
Width: 1221
VWidth: 2150
GlyphClass: 2
Flags: HMW
LayerCount: 2
Fore
SplineSet
780 1027 m 257
 1095 1027 l 257
 1095 -431 l 257
 780 -431 l 257
 780 1027 l 257
EndSplineSet
Refer: 427 57359 N -1 0 0 -1 1169 1028 2
EndChar

StartChar: r
Encoding: 114 114 307
GlifName: r
Width: 823
VWidth: 2150
GlyphClass: 2
Flags: HMW
LayerCount: 2
Fore
SplineSet
126 1027 m 257
 441 1027 l 257
 441 0 l 257
 126 0 l 257
 126 1027 l 257
EndSplineSet
Refer: 426 57358 N 1 0 0 1 74 -242 2
EndChar

StartChar: s
Encoding: 115 115 308
GlifName: s
Width: 990
VWidth: 2150
GlyphClass: 2
Flags: HMW
LayerCount: 2
Fore
SplineSet
927 826 m 1
 671 697 l 1
 645 750 608 819 502 819 c 0
 437 819 397 778 397 737 c 0
 397 682 461 657 580 629 c 0
 744 591 927 515 927 301 c 0
 927 84 710 -21 507 -21 c 0
 291 -21 152 60 63 179 c 1
 309 343 l 1
 349 281 417 206 531 206 c 0
 597 206 635 236 635 278 c 0
 635 354 568 383 423 418 c 0
 267 456 113 528 113 712 c 0
 113 914 308 1048 521 1048 c 0
 724 1048 856 956 927 826 c 1
EndSplineSet
EndChar

StartChar: t
Encoding: 116 116 309
GlifName: t
Width: 762
VWidth: 2150
GlyphClass: 2
Flags: HMW
LayerCount: 2
Fore
SplineSet
731 225 m 257
 731 0 l 257
 521 0 l 257
 321 0 179 156 179 328 c 258
 179 1351 l 257
 494 1351 l 257
 494 265 l 258
 494 239 506 225 531 225 c 258
 731 225 l 257
EndSplineSet
Refer: 422 57354 N 1 0 0 1 -53 308 2
EndChar

StartChar: u
Encoding: 117 117 310
GlifName: u
Width: 1216
VWidth: 2150
GlyphClass: 2
Flags: HMW
LayerCount: 2
Fore
SplineSet
786 1027 m 257
 1101 1027 l 257
 1101 0 l 257
 786 0 l 257
 786 1027 l 257
EndSplineSet
Refer: 425 57357 N -1 0 0 -1 1153 1027 2
EndChar

StartChar: v
Encoding: 118 118 311
GlifName: v
Width: 1116
VWidth: 2150
GlyphClass: 2
Flags: HMW
LayerCount: 2
Fore
SplineSet
780 1027 m 257
 1116 1027 l 257
 704 0 l 257
 415 0 l 257
 0 1027 l 257
 336 1027 l 257
 559 418 l 257
 780 1027 l 257
EndSplineSet
EndChar

StartChar: w
Encoding: 119 119 312
GlifName: w
Width: 1509
VWidth: 2150
GlyphClass: 2
Flags: HMW
LayerCount: 2
Fore
SplineSet
1150 1027 m 257
 1478 1027 l 257
 1164 0 l 257
 892 0 l 257
 755 567 l 257
 619 0 l 257
 348 0 l 257
 32 1027 l 257
 359 1027 l 257
 503 429 l 257
 643 1027 l 257
 866 1027 l 257
 1007 429 l 257
 1150 1027 l 257
EndSplineSet
EndChar

StartChar: x
Encoding: 120 120 313
GlifName: x
Width: 1140
VWidth: 2150
GlyphClass: 2
Flags: HMW
LayerCount: 2
Fore
SplineSet
736 1027 m 257
 1130 1027 l 257
 736 497 l 257
 1130 0 l 257
 736 0 l 257
 571 279 l 257
 405 0 l 257
 11 0 l 257
 405 497 l 257
 11 1027 l 257
 405 1027 l 257
 571 716 l 257
 736 1027 l 257
EndSplineSet
EndChar

StartChar: y
Encoding: 121 121 314
GlifName: y
Width: 1137
VWidth: 2150
GlyphClass: 2
Flags: HMW
LayerCount: 2
Fore
SplineSet
801 1027 m 257
 1137 1027 l 257
 751 97 l 258
 659 -120 517 -441 166 -441 c 258
 32 -441 l 257
 32 -151 l 257
 166 -151 l 258
 273 -151 344 -90 420 82 c 257
 394 82 l 257
 0 1027 l 257
 337 1027 l 257
 569 418 l 257
 801 1027 l 257
EndSplineSet
EndChar

StartChar: z
Encoding: 122 122 315
GlifName: z
Width: 1019
VWidth: 2150
GlyphClass: 2
Flags: HMW
LayerCount: 2
Fore
SplineSet
84 758 m 257
 84 1027 l 257
 936 1027 l 257
 936 804 l 257
 450 267 l 257
 936 267 l 257
 936 0 l 257
 84 0 l 257
 84 223 l 257
 569 758 l 257
 84 758 l 257
EndSplineSet
EndChar

StartChar: bar
Encoding: 124 124 316
GlifName: bar
Width: 462
VWidth: 2150
GlyphClass: 2
Flags: HMW
LayerCount: 2
Fore
SplineSet
95 1424 m 257
 368 1424 l 257
 368 -431 l 257
 95 -431 l 257
 95 1424 l 257
EndSplineSet
EndChar

StartChar: asciitilde
Encoding: 126 126 317
GlifName: asciitilde
Width: 911
VWidth: 2150
GlyphClass: 2
Flags: HMW
LayerCount: 2
Fore
SplineSet
58 1086 m 257
 117 1224 209 1293 302 1293 c 256
 373 1293 430 1268 494 1220 c 256
 548 1180 568 1172 610 1172 c 256
 635 1172 692 1204 739 1310 c 257
 855 1259 l 257
 797 1125 707 1046 610 1046 c 256
 538 1046 479 1073 418 1120 c 256
 363 1161 345 1167 302 1167 c 256
 272 1167 219 1141 173 1036 c 257
 58 1086 l 257
EndSplineSet
EndChar

StartChar: cent
Encoding: 162 162 319
GlifName: cent
Width: 1053
VWidth: 2150
GlyphClass: 2
Flags: HMW
LayerCount: 2
Fore
SplineSet
708 861 m 257
 435 861 l 257
 435 1424 l 257
 708 1424 l 257
 708 861 l 257
708 -431 m 257
 435 -431 l 257
 435 49 l 257
 708 49 l 257
 708 -431 l 257
EndSplineSet
Refer: 292 99 N 1 0 0 1 0 0 2
EndChar

StartChar: sterling
Encoding: 163 163 320
GlifName: sterling
Width: 1275
VWidth: 2150
GlyphClass: 2
Flags: HMW
LayerCount: 2
Fore
SplineSet
655 1155 m 256
 615 1155 564 1119 564 1050 c 258
 564 351 l 258
 564 323 562 293 557 267 c 257
 1170 267 l 257
 1170 0 l 257
 105 0 l 257
 105 267 l 257
 197 267 249 273 249 351 c 258
 249 1029 l 258
 249 1236 417 1424 655 1424 c 256
 899 1424 1036 1264 1066 1047 c 257
 755 1003 l 257
 750 1082 726 1155 655 1155 c 256
EndSplineSet
Refer: 422 57354 N 1 0 0 1 32 -29 2
EndChar

StartChar: currency
Encoding: 164 164 321
GlifName: currency
Width: 1410
VWidth: 2150
GlyphClass: 2
Flags: HMW
LayerCount: 2
Fore
SplineSet
530 910 m 257
 323 720 l 257
 74 982 l 257
 280 1171 l 257
 530 910 l 257
323 283 m 257
 530 93 l 257
 280 -168 l 257
 74 21 l 257
 323 283 l 257
1087 720 m 257
 880 910 l 257
 1130 1171 l 257
 1337 982 l 257
 1087 720 l 257
880 93 m 257
 1087 283 l 257
 1337 21 l 257
 1130 -168 l 257
 880 93 l 257
EndSplineSet
Refer: 304 111 N 1 0 0 1 129 0 2
EndChar

StartChar: brokenbar
Encoding: 166 166 323
GlifName: brokenbar
Width: 462
VWidth: 2150
GlyphClass: 2
Flags: HMW
LayerCount: 2
Fore
SplineSet
389 848 m 257
 74 848 l 257
 74 1424 l 257
 389 1424 l 257
 389 848 l 257
389 0 m 257
 74 0 l 257
 74 579 l 257
 389 579 l 257
 389 0 l 257
EndSplineSet
EndChar

StartChar: section
Encoding: 167 167 324
GlifName: section
Width: 990
VWidth: 2150
GlyphClass: 2
Flags: HMW
LayerCount: 2
Fore
SplineSet
927 719 m 0
 927 630 891 561 834 511 c 1
 890 464 927 398 927 301 c 0
 927 84 710 -21 507 -21 c 0
 291 -21 152 60 63 179 c 1
 309 343 l 1
 349 281 417 206 531 206 c 0
 597 206 635 236 635 278 c 0
 635 354 568 371 423 407 c 0
 268 445 113 507 113 691 c 0
 113 778 150 856 209 914 c 1
 151 957 113 1018 113 1109 c 0
 113 1311 308 1445 521 1445 c 0
 724 1445 856 1352 927 1222 c 1
 671 1094 l 1
 645 1147 608 1216 502 1216 c 0
 437 1216 397 1175 397 1134 c 0
 397 1079 461 1064 580 1037 c 0
 745 999 927 933 927 719 c 0
635 711 m 0
 635 761 597 806 517 806 c 0
 448 806 397 765 397 714 c 0
 397 668 448 630 517 630 c 0
 591 630 635 664 635 711 c 0
EndSplineSet
EndChar

StartChar: copyright
Encoding: 169 169 326
GlifName: copyright
Width: 1701
VWidth: 2150
GlyphClass: 2
Flags: HMW
LayerCount: 2
Fore
SplineSet
1109 924 m 257
 1011 840 l 257
 966 897 909 918 855 918 c 256
 753 918 678 833 678 715 c 256
 678 597 753 511 855 511 c 256
 909 511 966 533 1011 590 c 257
 1109 505 l 257
 1035 417 963 371 843 371 c 256
 641 371 518 540 518 715 c 256
 518 890 641 1060 843 1060 c 256
 963 1060 1035 1012 1109 924 c 257
373 714 m 256
 373 436 597 227 851 227 c 256
 1105 227 1329 436 1329 714 c 256
 1329 991 1105 1201 851 1201 c 256
 597 1201 373 991 373 714 c 256
105 714 m 256
 105 1111 431 1446 851 1446 c 256
 1271 1446 1596 1111 1596 714 c 256
 1596 318 1272 -20 851 -20 c 256
 430 -20 105 318 105 714 c 256
EndSplineSet
EndChar

StartChar: ordfeminine
Encoding: 170 170 327
GlifName: ordfeminine
Width: 783
VWidth: 2150
GlyphClass: 2
Flags: HMW
LayerCount: 2
Fore
SplineSet
705 1321 m 2
 705 900 l 1
 484 900 l 1
 484 994 l 1
 442 933 378 885 278 885 c 0
 156 885 79 961 79 1085 c 0
 79 1254 243 1325 405 1325 c 0
 433 1325 460 1323 484 1319 c 1
 484 1325 l 2
 484 1402 461 1466 379 1466 c 0
 307 1466 279 1408 263 1372 c 1
 103 1447 l 1
 140 1543 225 1634 390 1634 c 0
 559 1634 705 1537 705 1321 c 2
484 1141 m 1
 484 1204 l 1
 464 1207 442 1209 420 1209 c 0
 348 1209 274 1175 274 1115 c 0
 274 1079 298 1054 347 1054 c 0
 414 1054 464 1091 484 1141 c 1
EndSplineSet
EndChar

StartChar: logicalnot
Encoding: 172 172 328
GlifName: logicalnot
Width: 1084
VWidth: 2150
GlyphClass: 2
Flags: HMW
LayerCount: 2
Fore
SplineSet
74 498 m 257
 74 725 l 257
 927 725 l 257
 927 252 l 257
 696 252 l 257
 696 498 l 257
 74 498 l 257
EndSplineSet
EndChar

StartChar: uni00AD
Encoding: 173 173 329
GlifName: uni00A_D_
Width: 1000
VWidth: 2150
GlyphClass: 2
Flags: HMW
LayerCount: 2
Fore
SplineSet
927 725 m 257
 927 498 l 257
 74 498 l 257
 74 725 l 257
 927 725 l 257
EndSplineSet
EndChar

StartChar: registered
Encoding: 174 174 330
GlifName: registered
Width: 1701
VWidth: 2150
GlyphClass: 2
Flags: HMW
LayerCount: 2
Fore
SplineSet
105 714 m 256
 105 1111 431 1446 851 1446 c 256
 1271 1446 1596 1111 1596 714 c 256
 1596 318 1272 -20 851 -20 c 256
 430 -20 105 318 105 714 c 256
373 714 m 256
 373 436 597 227 851 227 c 256
 1105 227 1329 436 1329 714 c 256
 1329 991 1105 1201 851 1201 c 256
 597 1201 373 991 373 714 c 256
761 703 m 257
 863 703 l 258
 932 703 984 743 984 809 c 256
 984 876 932 917 863 917 c 258
 761 917 l 257
 761 703 l 257
1151 402 m 257
 953 402 l 257
 822 563 l 257
 761 563 l 257
 761 400 l 257
 617 400 l 257
 617 1056 l 257
 863 1056 l 258
 1016 1056 1146 953 1146 809 c 256
 1146 709 1083 630 997 591 c 257
 1151 402 l 257
EndSplineSet
EndChar

StartChar: degree
Encoding: 176 176 332
GlifName: degree
Width: 678
VWidth: 2150
GlyphClass: 2
Flags: HMW
LayerCount: 2
Fore
SplineSet
478 1365 m 256
 478 1444 418 1504 339 1504 c 256
 260 1504 201 1444 201 1365 c 256
 201 1286 260 1227 339 1227 c 256
 418 1227 478 1286 478 1365 c 256
604 1365 m 256
 604 1218 486 1101 339 1101 c 256
 192 1101 75 1218 75 1365 c 256
 75 1512 192 1630 339 1630 c 256
 486 1630 604 1512 604 1365 c 256
EndSplineSet
EndChar

StartChar: uni00B2
Encoding: 178 178 334
GlifName: uni00B_2
Width: 691
VWidth: 2150
GlyphClass: 2
Flags: HMW
LayerCount: 2
Fore
SplineSet
116 957 m 257
 116 1078 l 257
 411 1326 l 258
 440 1355 450 1367 450 1413 c 256
 450 1480 406 1509 346 1509 c 256
 280 1509 242 1477 242 1402 c 257
 116 1402 l 257
 116 1560 232 1635 346 1635 c 256
 454 1635 576 1563 576 1413 c 256
 576 1331 537 1270 498 1237 c 258
 305 1083 l 257
 576 1083 l 257
 576 957 l 257
 116 957 l 257
EndSplineSet
EndChar

StartChar: uni00B3
Encoding: 179 179 335
GlifName: uni00B_3
Width: 636
VWidth: 2150
GlyphClass: 2
Flags: HMW
LayerCount: 2
Fore
SplineSet
221 1420 m 257
 95 1420 l 257
 95 1548 196 1634 318 1634 c 256
 434 1634 542 1551 542 1430 c 256
 542 1374 517 1314 459 1290 c 257
 517 1266 542 1205 542 1149 c 256
 542 1028 434 945 318 945 c 256
 196 945 95 1031 95 1159 c 257
 221 1159 l 257
 221 1114 251 1071 318 1071 c 256
 379 1071 416 1112 416 1149 c 256
 416 1186 379 1232 318 1232 c 258
 244 1232 l 257
 244 1347 l 257
 318 1347 l 258
 379 1347 416 1393 416 1430 c 256
 416 1467 379 1508 318 1508 c 256
 251 1508 221 1465 221 1420 c 257
EndSplineSet
EndChar

StartChar: acute
Encoding: 180 180 336
GlifName: acute
Width: 542
VWidth: 2150
GlyphClass: 2
Flags: HMW
LayerCount: 2
Fore
SplineSet
328 1465 m 257
 434 1399 l 257
 215 1049 l 257
 109 1115 l 257
 328 1465 l 257
EndSplineSet
EndChar

StartChar: mu
Encoding: 181 181 337
GlifName: mu
Width: 1216
VWidth: 2150
GlyphClass: 2
Flags: HMW
LayerCount: 2
Fore
SplineSet
116 1027 m 257
 431 1027 l 257
 431 -431 l 257
 116 -431 l 257
 116 1027 l 257
EndSplineSet
Refer: 310 117 N 1 0 0 1 0 0 2
EndChar

StartChar: paragraph
Encoding: 182 182 338
GlifName: paragraph
Width: 1434
VWidth: 2150
GlyphClass: 2
Flags: HMW
LayerCount: 2
Fore
SplineSet
744 1155 m 257
 647 1155 l 258
 541 1155 420 1065 420 864 c 256
 420 663 541 573 647 573 c 258
 744 573 l 257
 744 1155 l 257
1330 -431 m 257
 1099 -431 l 257
 1099 1155 l 257
 975 1155 l 257
 975 -431 l 257
 744 -431 l 257
 744 307 l 257
 647 307 l 258
 333 307 105 560 105 864 c 256
 105 1168 332 1424 647 1424 c 258
 1330 1424 l 257
 1330 -431 l 257
EndSplineSet
EndChar

StartChar: cedilla
Encoding: 184 184 340
GlifName: cedilla
Width: 759
VWidth: 2150
GlyphClass: 2
Flags: HMW
LayerCount: 2
Fore
SplineSet
194 -260 m 257
 371 -260 l 258
 460 -260 460 -227 460 -216 c 256
 460 -202 452 -173 426 -143 c 258
 321 -20 l 257
 424 89 l 257
 529 -34 l 258
 574 -88 603 -150 603 -216 c 256
 603 -344 498 -418 371 -418 c 258
 194 -418 l 257
 194 -260 l 257
EndSplineSet
EndChar

StartChar: uni00B9
Encoding: 185 185 341
GlifName: uni00B_9
Width: 478
VWidth: 2150
GlyphClass: 2
Flags: HMW
LayerCount: 2
Fore
SplineSet
84 1401 m 257
 84 1527 l 257
 232 1527 l 257
 232 1624 l 257
 358 1624 l 257
 358 956 l 257
 232 956 l 257
 232 1401 l 257
 84 1401 l 257
EndSplineSet
EndChar

StartChar: onequarter
Encoding: 188 188 343
GlifName: onequarter
Width: 2116
VWidth: 2150
GlyphClass: 2
Flags: HMW
LayerCount: 2
Fore
SplineSet
2053 129 m 257
 2053 -113 l 257
 1913 -113 l 257
 1913 -353 l 257
 1597 -353 l 257
 1597 -113 l 257
 1056 -113 l 1
 1056 129 l 1
 1618 922 l 257
 1913 922 l 257
 1913 129 l 257
 2053 129 l 257
1597 129 m 257
 1597 532 l 257
 1304 129 l 257
 1597 129 l 257
665 -139 m 257
 431 4 l 257
 1504 1687 l 257
 1738 1544 l 257
 665 -139 l 257
105 1318 m 257
 105 1564 l 257
 274 1564 l 258
 331 1564 340 1573 340 1639 c 258
 337 1797 l 257
 652 1797 l 257
 652 580 l 257
 337 580 l 257
 337 1330 l 257
 291 1324 244 1318 191 1318 c 258
 105 1318 l 257
EndSplineSet
EndChar

StartChar: onehalf
Encoding: 189 189 344
GlifName: onehalf
Width: 2316
VWidth: 2150
GlyphClass: 2
Flags: HMW
LayerCount: 2
Fore
SplineSet
665 -139 m 257
 431 4 l 257
 1504 1687 l 257
 1738 1544 l 257
 665 -139 l 257
2275 -134 m 257
 2275 -403 l 257
 1343 -403 l 257
 1343 -182 l 257
 1888 354 l 258
 1950 415 1980 462 1980 532 c 256
 1980 619 1922 695 1819 695 c 256
 1701 695 1649 610 1649 462 c 257
 1344 462 l 257
 1344 761 1544 962 1809 962 c 256
 2040 962 2275 802 2275 515 c 256
 2275 345 2196 231 2113 152 c 257
 1833 -134 l 257
 2275 -134 l 257
105 1319 m 257
 105 1565 l 257
 277 1565 l 258
 331 1565 337 1574 337 1642 c 258
 337 1798 l 257
 652 1798 l 257
 652 580 l 257
 337 580 l 257
 337 1330 l 257
 289 1322 242 1319 191 1319 c 258
 105 1319 l 257
EndSplineSet
EndChar

StartChar: threequarters
Encoding: 190 190 345
GlifName: threequarters
Width: 2415
VWidth: 2150
GlyphClass: 2
Flags: HMW
LayerCount: 2
Fore
SplineSet
2212 129 m 257
 2353 129 l 257
 2353 -113 l 257
 2212 -113 l 257
 2212 -353 l 257
 1897 -353 l 257
 1897 -113 l 257
 1355 -113 l 1
 1355 129 l 1
 1918 922 l 257
 2212 922 l 257
 2212 129 l 257
1897 129 m 257
 1897 532 l 257
 1604 129 l 257
 1897 129 l 257
105 934 m 1
 403 934 l 1
 403 802 447 748 582 748 c 0
 689 748 762 785 762 890 c 0
 762 1012 695 1068 574 1068 c 2
 448 1068 l 1
 448 1313 l 1
 574 1313 l 2
 671 1313 731 1370 731 1453 c 0
 731 1538 678 1591 593 1591 c 0
 475 1591 452 1539 452 1426 c 1
 153 1426 l 1
 153 1696 334 1853 593 1853 c 0
 794 1853 1021 1718 1021 1453 c 0
 1021 1353 954 1245 879 1197 c 1
 974 1146 1053 1016 1053 890 c 0
 1053 625 842 487 582 487 c 0
 302 487 105 644 105 934 c 1
964 -139 m 257
 730 4 l 257
 1803 1687 l 257
 2037 1544 l 257
 964 -139 l 257
EndSplineSet
EndChar

StartChar: AE
Encoding: 198 198 353
GlifName: A_E_
Width: 1837
VWidth: 2150
GlyphClass: 2
Flags: HMW
LayerCount: 2
Fore
SplineSet
892 1155 m 257
 836 1155 l 257
 605 624 l 257
 892 624 l 257
 892 1155 l 257
653 1424 m 257
 1754 1424 l 257
 1754 1155 l 257
 1207 1155 l 257
 1207 836 l 257
 1701 836 l 257
 1701 588 l 257
 1207 588 l 257
 1207 267 l 257
 1754 267 l 257
 1754 0 l 257
 892 0 l 257
 892 378 l 257
 510 378 l 257
 347 0 l 257
 11 0 l 257
 653 1424 l 257
EndSplineSet
EndChar

StartChar: multiply
Encoding: 215 215 370
GlifName: multiply
Width: 1059
VWidth: 2150
GlyphClass: 2
Flags: HMW
LayerCount: 2
Fore
SplineSet
773 1015 m 1
 934 855 l 1
 690 611 l 1
 934 367 l 1
 774 207 l 1
 529 451 l 1
 286 207 l 1
 126 367 l 1
 370 611 l 1
 126 854 l 1
 286 1015 l 1
 529 771 l 1
 773 1015 l 1
EndSplineSet
EndChar

StartChar: Thorn
Encoding: 222 222 377
GlifName: T_horn
Width: 1248
VWidth: 2150
GlyphClass: 2
Flags: HMW
LayerCount: 2
Fore
SplineSet
462 525 m 257
 638 525 l 258
 801 525 871 575 871 713 c 256
 871 851 801 901 638 901 c 258
 462 901 l 257
 462 525 l 257
462 0 m 257
 147 0 l 257
 147 1424 l 257
 462 1424 l 257
 462 1147 l 257
 638 1147 l 258
 919 1147 1186 1035 1186 713 c 256
 1186 391 919 279 638 279 c 258
 462 279 l 257
 462 0 l 257
EndSplineSet
EndChar

StartChar: germandbls
Encoding: 223 223 378
GlifName: germandbls
Width: 1166
VWidth: 2150
GlyphClass: 2
Flags: HMW
LayerCount: 2
Fore
SplineSet
508 -11 m 1
 508 255 l 1
 737 255 794 257 794 298 c 0
 794 323 780 354 716 399 c 0
 653 443 531 530 531 691 c 0
 531 795 577 858 617 912 c 0
 650 956 674 1010 674 1063 c 0
 674 1146 631 1195 544 1195 c 0
 442 1195 415 1135 415 1031 c 2
 415 0 l 1
 126 0 l 1
 126 1031 l 2
 126 1234 258 1445 544 1445 c 0
 822 1445 963 1237 963 1031 c 0
 963 921 914 803 851 755 c 0
 825 734 814 718 814 703 c 0
 814 679 841 648 892 611 c 0
 964 558 1083 454 1083 289 c 0
 1083 0 851 -11 508 -11 c 1
EndSplineSet
EndChar

StartChar: ae
Encoding: 230 230 385
GlifName: ae
Width: 1675
VWidth: 2150
GlyphClass: 2
Flags: HMW
LayerCount: 2
Fore
SplineSet
958 447 m 17
 971 319 1035 206 1146 206 c 0
 1233 206 1296 281 1318 362 c 1
 1570 289 l 1
 1529 128 1374 -21 1144 -21 c 0
 806 -21 643 261 643 513 c 0
 643 765 816 1048 1142 1048 c 0
 1449 1048 1612 763 1612 465 c 2
 1612 447 l 1
 958 447 l 17
965 621 m 1
 1324 621 l 1
 1302 733 1244 819 1146 819 c 0
 1055 819 987 754 965 621 c 1
958 590 m 258
 958 284 l 257
 643 284 l 257
 643 582 l 258
 643 700 615 809 492 809 c 256
 389 809 347 724 325 673 c 257
 98 781 l 257
 151 917 272 1048 507 1048 c 256
 749 1048 958 899 958 590 c 258
EndSplineSet
Refer: 423 57355 N 1 0 0 1 -34 0 2
EndChar

StartChar: eth
Encoding: 240 240 395
GlifName: eth
Width: 1148
VWidth: 2150
GlyphClass: 2
Flags: HMW
LayerCount: 2
Fore
SplineSet
574 819 m 0
 458 819 383 705 383 513 c 0
 383 321 457 207 574 207 c 0
 691 207 766 321 766 513 c 0
 766 705 690 819 574 819 c 0
574 1048 m 0
 649 1048 712 1027 766 989 c 1
 733 1105 632 1243 570 1292 c 1
 437 1184 l 1
 340 1301 l 1
 451 1391 l 1
 401 1421 329 1450 270 1463 c 1
 328 1666 l 1
 421 1649 534 1591 621 1528 c 1
 745 1629 l 1
 841 1511 l 1
 737 1427 l 1
 991 1170 1081 893 1081 617 c 0
 1081 261 916 -20 574 -20 c 0
 232 -20 68 261 68 513 c 0
 68 765 231 1048 574 1048 c 0
EndSplineSet
EndChar

StartChar: dotlessi
Encoding: 305 305 410
GlifName: dotlessi
Width: 525
VWidth: 2150
GlyphClass: 2
Flags: HMW
LayerCount: 2
Fore
SplineSet
105 1027 m 257
 420 1027 l 257
 420 0 l 257
 105 0 l 257
 105 1027 l 257
EndSplineSet
EndChar

StartChar: OE
Encoding: 338 338 411
GlifName: O_E_
Width: 1837
VWidth: 2150
GlyphClass: 2
Flags: HMW
LayerCount: 2
Fore
SplineSet
871 1155 m 257
 799 1155 l 258
 500 1155 368 1019 368 712 c 256
 368 405 500 267 799 267 c 258
 871 267 l 257
 871 1155 l 257
1186 1155 m 257
 1186 836 l 257
 1680 836 l 257
 1680 588 l 257
 1186 588 l 257
 1186 267 l 257
 1733 267 l 257
 1733 0 l 257
 799 0 l 258
 275 0 53 321 53 712 c 256
 53 1103 275 1424 799 1424 c 258
 1733 1424 l 257
 1733 1155 l 257
 1186 1155 l 257
EndSplineSet
EndChar

StartChar: uniE003
Encoding: 57347 57347 413
GlifName: uniE_003
Width: 1850
VWidth: 2150
GlyphClass: 2
Flags: HMW
LayerCount: 2
Fore
SplineSet
1418 1445 m 257
 1570 1287 l 257
 211 -25 l 257
 59 133 l 257
 1418 1445 l 257
EndSplineSet
EndChar

StartChar: uniE004
Encoding: 57348 57348 414
GlifName: uniE_004
Width: 1142
VWidth: 2150
GlyphClass: 2
Flags: HMW
LayerCount: 2
Fore
SplineSet
131 -114 m 257
 -21 0 l 257
 863 1121 l 257
 1016 1006 l 257
 131 -114 l 257
EndSplineSet
EndChar

StartChar: uniE005
Encoding: 57349 57349 416
GlifName: uniE_005
Width: 1535
VWidth: 2150
GlyphClass: 2
Flags: HMW
LayerCount: 2
Fore
SplineSet
1483 90 m 257
 1315 -50 l 257
 834 535 l 257
 1002 675 l 257
 1483 90 l 257
EndSplineSet
EndChar

StartChar: uniE006
Encoding: 57350 57350 417
GlifName: uniE_006
Width: 1203
VWidth: 2150
GlyphClass: 2
Flags: HMW
LayerCount: 2
Fore
SplineSet
216 175 m 257
 216 357 l 257
 987 357 l 257
 987 175 l 257
 216 175 l 257
216 465 m 257
 216 647 l 257
 987 647 l 257
 987 465 l 257
 216 465 l 257
EndSplineSet
EndChar

StartChar: uniE007
Encoding: 57351 57351 418
GlifName: uniE_007
Width: 912
VWidth: 2150
GlyphClass: 2
Flags: HMW
LayerCount: 2
Fore
SplineSet
608 1690 m 257
 578 1706 531 1721 496 1721 c 256
 414 1721 373 1667 373 1628 c 256
 373 1578 400 1566 475 1543 c 256
 536 1524 648 1487 648 1363 c 256
 648 1218 484 1154 361 1154 c 256
 285 1154 221 1170 164 1197 c 257
 217 1311 l 257
 255 1293 299 1280 361 1280 c 256
 466 1280 522 1323 522 1357 c 256
 522 1382 509 1399 437 1421 c 256
 368 1442 247 1487 247 1632 c 256
 247 1753 362 1847 496 1847 c 256
 560 1847 610 1826 656 1805 c 257
 608 1690 l 257
EndSplineSet
EndChar

StartChar: uniE008
Encoding: 57352 57352 419
GlifName: uniE_008
Width: 1527
VWidth: 2150
GlyphClass: 2
Flags: HMW
LayerCount: 2
Fore
SplineSet
520 1269 m 256
 520 1336 471 1387 412 1387 c 256
 353 1387 302 1334 302 1269 c 256
 302 1205 351 1157 412 1157 c 256
 471 1157 520 1205 520 1269 c 256
723 1270 m 256
 723 1099 587 956 412 956 c 256
 238 956 100 1099 100 1270 c 256
 100 1434 228 1589 412 1589 c 256
 597 1589 723 1433 723 1270 c 256
EndSplineSet
EndChar

StartChar: uniE009
Encoding: 57353 57353 420
GlifName: uniE_009
Width: 1203
VWidth: 2150
GlyphClass: 2
Flags: HMW
LayerCount: 2
Fore
SplineSet
534 1586 m 257
 670 1586 l 257
 670 -175 l 257
 534 -175 l 257
 534 1586 l 257
EndSplineSet
EndChar

StartChar: uni0237
Encoding: 567 567 421
GlifName: uni0237
Width: 525
VWidth: 2150
GlyphClass: 2
Flags: HMW
LayerCount: 2
Fore
SplineSet
105 -103 m 258
 105 1027 l 257
 420 1027 l 257
 420 -103 l 258
 420 -275 278 -431 78 -431 c 258
 -143 -431 l 257
 -143 -143 l 257
 67 -143 l 258
 92 -143 105 -129 105 -103 c 258
EndSplineSet
EndChar

StartChar: uniE00A
Encoding: 57354 57354 422
GlifName: uniE_00A_
Width: 1275
VWidth: 2150
GlyphClass: 2
Flags: HMW
LayerCount: 2
Fore
SplineSet
74 520 m 257
 74 719 l 257
 783 719 l 257
 783 520 l 257
 74 520 l 257
EndSplineSet
EndChar

StartChar: uniE00B
Encoding: 57355 57355 423
GlifName: uniE_00B_
Width: 1163
VWidth: 2150
GlyphClass: 2
Flags: HMW
LayerCount: 2
Fore
SplineSet
771 343 m 1
 725 188 633 -21 382 -21 c 0
 208 -21 97 87 97 264 c 0
 97 506 332 607 563 607 c 0
 665 607 741 587 823 563 c 1
 708 429 l 1
 672 435 629 440 585 440 c 0
 481 440 376 392 376 307 c 0
 376 257 410 220 480 220 c 0
 577 220 648 272 676 343 c 1
 771 343 l 1
EndSplineSet
EndChar

StartChar: uniE00C
Encoding: 57356 57356 424
GlifName: uniE_00C_
Width: 1613
VWidth: 2150
GlyphClass: 2
Flags: HMW
LayerCount: 2
Fore
SplineSet
875 728 m 257
 972 907 1073 1048 1302 1048 c 256
 1531 1048 1582 859 1582 628 c 258
 1582 0 l 257
 1267 0 l 257
 1267 570 l 258
 1267 677 1209 758 1111 758 c 256
 1020 758 989 730 940 662 c 257
 875 728 l 257
EndSplineSet
EndChar

StartChar: uniE00D
Encoding: 57357 57357 425
GlifName: uniE_00D_
Width: 1100
VWidth: 2150
GlyphClass: 2
Flags: HMW
LayerCount: 2
Fore
SplineSet
287 693 m 257
 396 902 482 1048 703 1048 c 256
 989 1048 1038 825 1038 587 c 258
 1038 0 l 257
 723 0 l 257
 723 522 l 258
 723 664 680 758 559 758 c 256
 469 758 418 703 368 626 c 257
 287 693 l 257
EndSplineSet
EndChar

StartChar: uniE00E
Encoding: 57358 57358 426
GlifName: uniE_00E_
Width: 791
VWidth: 2150
GlyphClass: 2
Flags: HMW
LayerCount: 2
Fore
SplineSet
368 602 m 257
 263 602 l 257
 263 901 325 1290 715 1290 c 258
 718 1290 l 257
 718 1000 l 257
 642 1000 l 258
 471 1000 368 832 368 602 c 257
EndSplineSet
EndChar

StartChar: uniE00F
Encoding: 57359 57359 427
GlifName: uniE_00F_
Width: 1174
VWidth: 2150
GlyphClass: 2
Flags: HMW
LayerCount: 2
Fore
SplineSet
590 819 m 256
 464 819 389 695 389 513 c 256
 389 331 463 207 590 207 c 256
 717 207 792 331 792 513 c 256
 792 695 716 819 590 819 c 256
705 1048 m 256
 996 1048 1106 765 1106 513 c 256
 1106 261 995 -20 705 -20 c 256
 415 -20 304 261 304 513 c 256
 304 765 414 1048 705 1048 c 256
EndSplineSet
EndChar

StartChar: quoteright
Encoding: 8217 8217 429
GlifName: quoteright
Width: 623
VWidth: 2150
GlyphClass: 2
Flags: HMW
LayerCount: 2
Fore
SplineSet
126 1376 m 256
 126 1473 195 1555 304 1555 c 256
 415 1555 498 1466 498 1314 c 256
 498 1123 403 978 277 864 c 257
 175 960 l 257
 242 1029 316 1117 338 1195 c 257
 226 1195 126 1255 126 1376 c 256
EndSplineSet
EndChar

StartChar: quoteleft
Encoding: 8216 8216 430
GlifName: quoteleft
Width: 623
VWidth: 2150
GlyphClass: 2
Flags: HMW
LayerCount: 2
Fore
SplineSet
498 1376 m 256
 498 1255 398 1195 286 1195 c 257
 308 1117 381 1029 448 960 c 257
 347 864 l 257
 221 978 126 1123 126 1314 c 256
 126 1466 209 1555 320 1555 c 256
 429 1555 498 1473 498 1376 c 256
EndSplineSet
EndChar

StartChar: uniFD3E
Encoding: 64830 64830 457
GlifName: uniF_D_3E_
Width: 786
VWidth: 2150
GlyphClass: 2
Flags: HMW
LayerCount: 2
Fore
SplineSet
208 715 m 0
 208 630 283 556 368 556 c 0
 453 556 527 630 527 715 c 0
 527 800 453 875 368 875 c 0
 283 875 208 800 208 715 c 0
734 -91 m 1
 496 -248 l 1
 378 -65 265 175 229 433 c 1
 125 484 53 591 53 715 c 0
 53 839 125 947 229 998 c 1
 265 1256 378 1495 496 1678 c 1
 734 1522 l 1
 639 1375 574 1179 544 976 c 1
 627 919 683 823 683 715 c 0
 683 607 627 512 544 455 c 1
 574 252 639 56 734 -91 c 1
EndSplineSet
EndChar

StartChar: uniFD3F
Encoding: 64831 64831 458
GlifName: uniF_D_3F_
Width: 786
VWidth: 2150
GlyphClass: 2
Flags: HMW
LayerCount: 2
Fore
SplineSet
579 715 m 0
 579 800 504 875 419 875 c 0
 334 875 259 800 259 715 c 0
 259 630 334 556 419 556 c 0
 504 556 579 630 579 715 c 0
53 1522 m 1
 291 1678 l 1
 409 1495 522 1256 558 998 c 1
 662 947 734 839 734 715 c 0
 734 591 662 484 558 433 c 1
 522 175 409 -65 291 -248 c 1
 53 -91 l 1
 148 56 213 252 243 455 c 1
 160 512 104 607 104 715 c 0
 104 823 160 919 243 976 c 1
 213 1179 148 1375 53 1522 c 1
EndSplineSet
EndChar

StartChar: uniE020
Encoding: 57376 57376 461
GlifName: uniE_020
Width: 914
VWidth: 2150
GlyphClass: 2
Flags: HMW
LayerCount: 2
Fore
SplineSet
736 748 m 257
 568 607 l 257
 539 642 499 670 433 670 c 256
 364 670 299 615 299 532 c 256
 299 450 338 397 424 381 c 257
 767 519 l 257
 852 316 l 257
 148 25 l 257
 63 228 l 257
 202 287 l 257
 133 328 79 415 79 517 c 256
 79 741 240 891 433 891 c 256
 576 891 677 818 736 748 c 257
EndSplineSet
Colour: ff00ff
EndChar

StartChar: uniE021
Encoding: 57377 57377 462
GlifName: uniE_021
Width: 525
VWidth: 2150
GlyphClass: 2
Flags: HMW
LayerCount: 2
Fore
SplineSet
525 1877 m 257
 662 1812 l 257
 597 1660 515 1585 394 1585 c 256
 351 1585 301 1600 253 1616 c 0
 207 1632 161 1647 131 1647 c 256
 85 1647 51 1618 -2 1544 c 257
 -137 1624 l 257
 -67 1765 35 1847 151 1847 c 256
 198 1847 260 1826 313 1807 c 0
 352 1793 386 1782 413 1782 c 256
 446 1782 479 1794 525 1877 c 257
420 1424 m 257
 420 0 l 257
 105 0 l 257
 105 1424 l 257
 420 1424 l 257
EndSplineSet
Colour: ff00ff
EndChar

StartChar: uniE022
Encoding: 57378 57378 463
GlifName: uniE_022
Width: 525
VWidth: 2150
GlyphClass: 2
Flags: HMW
LayerCount: 2
Fore
SplineSet
420 0 m 257
 105 0 l 257
 105 1424 l 257
 420 1424 l 257
 420 0 l 257
EndSplineSet
Colour: ff00ff
EndChar

StartChar: uniE023
Encoding: 57379 57379 464
GlifName: uniE_023
Width: 1416
VWidth: 2150
GlyphClass: 2
Flags: HMW
LayerCount: 2
Fore
SplineSet
1304 -321 m 1
 1417 -614 l 1
 1224 -700 993 -748 768 -748 c 0
 374 -748 37 -573 37 -162 c 0
 37 264 462 501 895 628 c 1
 598 716 l 2
 565 727 536 732 510 732 c 0
 424 732 370 671 353 513 c 1
 82 561 l 1
 117 819 259 1046 517 1046 c 0
 582 1046 654 1033 735 1000 c 1
 1338 781 l 1
 1338 460 l 1
 731 309 352 97 352 -162 c 0
 352 -344 520 -419 744 -419 c 0
 940 -419 1158 -378 1304 -321 c 1
EndSplineSet
Colour: ff00ff
EndChar

StartChar: uniE024
Encoding: 57380 57380 465
GlifName: uniE_024
Width: 987
VWidth: 2150
GlyphClass: 2
Flags: HMW
LayerCount: 2
Fore
SplineSet
950 419 m 256
 950 119 669 0 392 0 c 0
 266 0 139 20 37 48 c 257
 108 346 l 257
 169 332 278 314 382 314 c 0
 514 314 639 342 639 444 c 256
 639 541 527 705 315 884 c 257
 517 1124 l 257
 765 915 950 691 950 419 c 256
EndSplineSet
Colour: ff00ff
EndChar

StartChar: uniE025
Encoding: 57381 57381 466
GlifName: uniE_025
Width: 849
VWidth: 2150
GlyphClass: 2
Flags: HMW
LayerCount: 2
Fore
SplineSet
384 666 m 257
 677 782 l 257
 749 597 813 395 813 213 c 256
 813 -162 526 -415 128 -559 c 257
 21 -263 l 257
 321 -154 498 -20 498 213 c 256
 498 334 446 514 384 666 c 257
EndSplineSet
Colour: ff00ff
EndChar

StartChar: uniE026
Encoding: 57382 57382 467
GlifName: uniE_026
Width: 2495
VWidth: 2150
GlyphClass: 2
Flags: HMW
LayerCount: 2
Fore
SplineSet
2407 851 m 257
 2440 702 2459 597 2459 436 c 256
 2459 190 2300 0 2057 0 c 256
 1962 0 1866 39 1802 118 c 257
 1760 39 1676 0 1589 0 c 0
 1543 0 1489 11 1442 33 c 1
 1396 -325 1098 -489 740 -489 c 0
 351 -489 37 -308 37 133 c 0
 37 350 83 564 145 732 c 1
 431 639 l 1
 384 484 343 325 343 188 c 0
 343 -26 432 -174 740 -174 c 0
 1037 -174 1131 -56 1131 172 c 0
 1131 325 1077 494 1008 654 c 1
 1314 797 l 1
 1420 477 l 2
 1459 360 1495 315 1563 315 c 0
 1633 315 1669 365 1669 532 c 258
 1669 720 l 257
 1931 720 l 257
 1931 532 l 258
 1931 410 1947 315 2047 315 c 256
 2128 315 2144 359 2144 436 c 256
 2144 576 2125 670 2099 786 c 257
 2407 851 l 257
EndSplineSet
Colour: ff00ff
EndChar

StartChar: uniE027
Encoding: 57383 57383 468
GlifName: uniE_027
Width: 2496
VWidth: 2150
GlyphClass: 2
Flags: HMW
LayerCount: 2
Fore
SplineSet
1690 0 m 0
 1602 0 1516 4 1436 19 c 1
 1378 -335 1115 -500 751 -500 c 0
 341 -500 37 -318 37 144 c 0
 37 361 83 564 145 732 c 1
 437 636 l 1
 382 487 343 311 343 177 c 0
 343 -51 433 -185 751 -185 c 0
 1073 -185 1135 -18 1135 172 c 0
 1135 309 1072 477 998 644 c 1
 1296 787 l 1
 1335 696 1371 609 1398 513 c 1
 1589 780 1838 932 2034 932 c 0
 2239 932 2460 791 2460 531 c 0
 2460 149 1981 0 1690 0 c 0
1622 315 m 1
 1644 315 1666 315 1690 315 c 0
 2022 315 2145 432 2145 510 c 0
 2145 571 2095 617 2013 617 c 0
 1926 617 1780 558 1622 315 c 1
EndSplineSet
Colour: ff00ff
EndChar

StartChar: uniE028
Encoding: 57384 57384 469
GlifName: uniE_028
Width: 1554
VWidth: 2150
GlyphClass: 2
Flags: HMW
LayerCount: 2
Back
SplineSet
686.868164062 325.579101562 m 257
 686.868164062 315.077148438 l 257
 1167.88476562 315.077148438 1202.54394531 418.001953125 1202.54394531 496.771484375 c 256
 1202.54394531 557.686523438 1161.58398438 616.500976562 1071.26171875 616.500976562 c 256
 988.291015625 616.500976562 814.999023438 546.133789062 686.868164062 325.579101562 c 257
323.478515625 315.077148438 m 257
 323.478515625 1424.14746094 l 257
 638.555664062 1424.14746094 l 257
 638.555664062 964.135742188 l 2
 638.555664062 871.712890625 617.55078125 763.536132812 576.590820312 673.21484375 c 1
 608.098632812 648.0078125 l 257
 769.837890625 838.104492188 953.6328125 931.577148438 1119.57324219 931.577148438 c 256
 1297.06640625 931.577148438 1517.62011719 791.893554688 1517.62011719 531.4296875 c 256
 1517.62011719 168.041015625 1206.74414062 0 481.017578125 0 c 258
 36.7587890625 0 l 257
 36.7587890625 315.077148438 l 257
 323.478515625 315.077148438 l 257
EndSplineSet
Fore
SplineSet
687 326 m 257
 687 315 l 257
 1168 315 1203 418 1203 497 c 256
 1203 558 1161 617 1071 617 c 256
 988 617 815 547 687 326 c 257
323 315 m 257
 323 1424 l 257
 639 1424 l 257
 639 673 l 257
 789 841 954 932 1120 932 c 256
 1297 932 1518 791 1518 531 c 256
 1518 168 1207 0 481 0 c 258
 37 0 l 257
 37 315 l 257
 323 315 l 257
EndSplineSet
Colour: ff00ff
EndChar

StartChar: uniE029
Encoding: 57385 57385 470
GlifName: uniE_029
Width: 1359
VWidth: 2150
GlyphClass: 2
Flags: HMW
LayerCount: 2
Fore
SplineSet
1096 1059 m 257
 880 879 l 257
 823 947 750 1017 630 1017 c 256
 504 1017 429 924 429 815 c 256
 429 692 556 655 735 655 c 256
 853 655 979 676 1088 697 c 257
 1128 377 l 257
 620 312 352 183 352 -103 c 256
 352 -312 529 -401 776 -401 c 0
 911 -401 1076 -375 1222 -322 c 257
 1349 -611 l 257
 1169 -692 972 -733 786 -733 c 0
 386 -733 37 -544 37 -155 c 256
 37 128 183 311 333 425 c 257
 224 491 113 617 113 778 c 256
 113 1090 345 1332 630 1332 c 256
 875 1332 997 1189 1096 1059 c 257
EndSplineSet
Colour: ff00ff
EndChar

StartChar: uniE02A
Encoding: 57386 57386 471
GlifName: uniE_02A_
Width: 851
VWidth: 2150
GlyphClass: 2
Flags: HMW
LayerCount: 2
Fore
SplineSet
0 315 m 258
 851 315 l 257
 851 0 l 257
 0 0 l 258
 -87 0 -158 71 -158 158 c 256
 -158 245 -87 315 0 315 c 258
EndSplineSet
Colour: ff00ff
EndChar

StartChar: uniE02B
Encoding: 57387 57387 472
GlifName: uniE_02B_
Width: 1598
VWidth: 2150
GlyphClass: 2
Flags: HMW
LayerCount: 2
Fore
SplineSet
1178 1424 m 257
 1493 1424 l 257
 1493 622 l 258
 1493 413 1449 261 1345 161 c 256
 1231 51 1061 0 724 0 c 256
 387 0 37 33 37 475 c 256
 37 591 57 706 81 803 c 257
 374 740 l 257
 354 641 342 566 342 507 c 0
 342 330 447 315 732 315 c 256
 1017 315 1066 326 1121 381 c 256
 1166 426 1178 501 1178 622 c 258
 1178 1424 l 257
EndSplineSet
Colour: ff00ff
EndChar

StartChar: uniE02C
Encoding: 57388 57388 473
GlifName: uniE_02C_
Width: 1401
VWidth: 2150
GlyphClass: 2
Flags: HMW
LayerCount: 2
Fore
SplineSet
981 1424 m 257
 1296 1424 l 257
 1296 124 l 258
 1296 -296 1035 -531 633 -531 c 256
 281 -531 37 -334 37 -28 c 256
 37 147 70 311 133 481 c 257
 417 378 l 257
 367 216 351 118 351 23 c 256
 351 -122 441 -216 654 -216 c 256
 885 -216 981 -107 981 124 c 258
 981 1424 l 257
EndSplineSet
Colour: ff00ff
EndChar

StartChar: uniE02D
Encoding: 57389 57389 474
GlifName: uniE_02D_
Width: 1271
VWidth: 2150
GlyphClass: 2
Flags: HMW
LayerCount: 2
Fore
SplineSet
833 315 m 0
 905 315 917 347 917 410 c 0
 917 515 854 570 801 570 c 0
 733 570 665 510 639 356 c 1
 711 333 776 315 833 315 c 0
817 0 m 0
 696 0 584 30 498 64 c 0
 450 83 439 86 410 86 c 0
 370 86 352 71 352 -28 c 2
 352 -772 l 1
 37 -772 l 1
 37 -28 l 2
 37 161 148 340 337 389 c 1
 379 594 493 895 818 895 c 0
 1094 895 1235 639 1235 419 c 0
 1235 124 1010 0 817 0 c 0
EndSplineSet
Colour: ff00ff
EndChar

StartChar: uniE02E
Encoding: 57390 57390 475
GlifName: uniE_02E_
Width: 900
VWidth: 2150
GlyphClass: 2
Flags: HMW
LayerCount: 2
Fore
SplineSet
451 315 m 256
 529 315 568 337 568 404 c 256
 568 467 528 552 451 639 c 257
 374 552 332 465 332 404 c 256
 332 338 371 315 451 315 c 256
451 0 m 256
 214 0 37 166 37 397 c 256
 37 695 267 900 451 1062 c 257
 635 900 863 694 863 397 c 256
 863 167 689 0 451 0 c 256
EndSplineSet
Colour: ff00ff
EndChar

StartChar: uniE02F
Encoding: 57391 57391 476
GlifName: uniE_02F_
Width: 931
VWidth: 2150
GlyphClass: 2
Flags: HMW
LayerCount: 2
Fore
SplineSet
557 9 m 1
 525 4 477 0 434 0 c 0
 212 0 72 129 72 375 c 0
 72 611 202 890 468 890 c 0
 775 890 895 582 895 257 c 0
 895 -175 665 -430 144 -559 c 1
 37 -263 l 1
 291 -201 488 -78 557 9 c 1
597 312 m 1
 579 495 531 570 462 570 c 0
 394 570 349 496 349 389 c 0
 349 319 375 299 473 299 c 0
 517 299 564 303 597 312 c 1
EndSplineSet
Colour: ff00ff
EndChar

StartChar: uniE030
Encoding: 57392 57392 477
GlifName: uniE_030
Width: 0
VWidth: 2150
GlyphClass: 2
Flags: HMW
LayerCount: 2
Fore
SplineSet
-227 1956 m 256
 -227 1891 -205 1835 -177 1794 c 257
 -269 1738 l 257
 -311 1801 -340 1877 -340 1961 c 256
 -340 2174 -168 2345 45 2345 c 257
 45 2240 l 257
 -101 2240 -227 2114 -227 1956 c 256
EndSplineSet
Colour: ff00ff
EndChar

StartChar: uniE031
Encoding: 57393 57393 478
GlifName: uniE_031
Width: 0
VWidth: 2150
GlyphClass: 2
Flags: HMW
LayerCount: 2
Fore
SplineSet
191 1867 m 257
 244 1752 l 257
 -191 1554 l 257
 -244 1670 l 257
 191 1867 l 257
EndSplineSet
Colour: ff00ff
EndChar

StartChar: uniE032
Encoding: 57394 57394 479
GlifName: uniE_032
Width: 0
VWidth: 2150
GlyphClass: 2
Flags: HMW
LayerCount: 2
Fore
SplineSet
-15 1778 m 257
 -77 1811 -144 1867 -144 1955 c 256
 -144 2066 -46 2147 49 2147 c 256
 169 2147 218 2035 218 1964 c 256
 218 1733 -14 1613 -181 1558 c 257
 -224 1677 l 257
 -145 1703 -76 1737 -15 1778 c 257
70 1877 m 257
 85 1905 92 1935 92 1964 c 256
 92 1994 74 2021 47 2021 c 256
 19 2021 -18 1985 -18 1958 c 256
 -18 1928 5 1903 70 1877 c 257
EndSplineSet
Colour: ff00ff
EndChar

StartChar: uniE033
Encoding: 57395 57395 480
GlifName: uniE_033
Width: 0
VWidth: 2150
GlyphClass: 2
Flags: HMW
LayerCount: 2
Fore
SplineSet
164 1786 m 256
 164 1826 157 1870 148 1914 c 1
 271 1945 l 1
 282 1895 290 1833 290 1780 c 256
 290 1663 222 1597 130 1597 c 256
 81 1597 19 1624 0 1668 c 257
 -21 1624 -81 1597 -130 1597 c 256
 -222 1597 -290 1663 -290 1781 c 256
 -290 1825 -282 1894 -272 1939 c 1
 -149 1911 l 1
 -158 1868 -164 1825 -164 1786 c 256
 -164 1728 -129 1721 -109 1721 c 256
 -88 1721 -53 1729 -53 1792 c 258
 -53 1877 l 257
 53 1877 l 257
 53 1792 l 258
 53 1729 87 1721 110 1721 c 256
 129 1721 164 1728 164 1786 c 256
EndSplineSet
Colour: ff00ff
EndChar

StartChar: uniE034
Encoding: 57396 57396 481
GlifName: uniE_034
Width: 0
VWidth: 2150
GlyphClass: 2
Flags: HMW
LayerCount: 2
Fore
SplineSet
0 1940 m 256
 -56 1940 -99 1898 -99 1842 c 256
 -99 1786 -55 1743 0 1743 c 256
 54 1743 99 1788 99 1842 c 256
 99 1896 56 1940 0 1940 c 256
0 2066 m 256
 123 2066 225 1967 225 1842 c 256
 225 1717 125 1617 0 1617 c 256
 -126 1617 -225 1719 -225 1842 c 256
 -225 1965 -126 2066 0 2066 c 256
EndSplineSet
Colour: ff00ff
EndChar

StartChar: uniE035
Encoding: 57397 57397 482
GlifName: uniE_035
Width: 0
VWidth: 2150
GlyphClass: 2
Flags: HMW
LayerCount: 2
Fore
SplineSet
-292 1608 m 257
 -258 1675 -196 1758 -91 1758 c 256
 -47 1758 -4 1741 37 1711 c 256
 61 1692 77 1688 90 1688 c 256
 120 1688 154 1722 175 1770 c 257
 291 1721 l 257
 259 1644 195 1562 90 1562 c 256
 45 1562 1 1578 -41 1610 c 256
 -64 1628 -80 1632 -91 1632 c 256
 -123 1632 -157 1597 -179 1553 c 257
 -292 1608 l 257
EndSplineSet
Colour: ff00ff
EndChar

StartChar: uniE036
Encoding: 57398 57398 483
GlifName: uniE_036
Width: 0
VWidth: 2150
GlyphClass: 2
Flags: HMW
LayerCount: 2
Back
SplineSet
-191.146484375 1553.32910156 m 257
 -243.659179688 1668.85742188 l 257
 -156.48828125 1707.71679688 l 257
 -192.197265625 1759.1796875 -210.051757812 1814.84277344 -210.051757812 1870.50683594 c 256
 -210.051757812 1986.03515625 -121.830078125 2086.859375 24.15625 2086.859375 c 258
 120.779296875 2086.859375 l 257
 120.779296875 1960.82910156 l 257
 24.15625 1960.82910156 l 258
 -58.814453125 1960.82910156 -84.0205078125 1918.81835938 -84.0205078125 1870.50683594 c 256
 -84.0205078125 1837.94824219 -69.3173828125 1795.93847656 -38.859375 1761.28027344 c 257
 192.197265625 1866.30566406 l 257
 244.709960938 1750.77734375 l 257
 -191.146484375 1553.32910156 l 257
EndSplineSet
Fore
SplineSet
-191 1553 m 257
 -244 1669 l 257
 -143 1714 l 257
 -179 1765 -196 1821 -196 1877 c 256
 -196 1993 -112 2071 38 2093 c 258
 103 2103 l 257
 117 1978 l 257
 38 1967 l 258
 -44 1956 -70 1925 -70 1877 c 256
 -70 1844 -55 1803 -25 1768 c 257
 192 1866 l 257
 245 1751 l 257
 -191 1553 l 257
EndSplineSet
Colour: ff00ff
EndChar

StartChar: uniE037
Encoding: 57399 57399 484
GlifName: uniE_037
Width: 0
VWidth: 2150
GlyphClass: 2
Flags: HMW
LayerCount: 2
Fore
SplineSet
-273 1943 m 257
 -172 2019 l 257
 0 1789 l 257
 172 2019 l 257
 273 1943 l 257
 0 1579 l 257
 -273 1943 l 257
EndSplineSet
Colour: ff00ff
EndChar

StartChar: uniE038
Encoding: 57400 57400 485
GlifName: uniE_038
Width: 1781
VWidth: 2150
GlyphClass: 2
Flags: HMW
LayerCount: 2
Fore
SplineSet
1691 875 m 257
 1721 777 1744 637 1744 515 c 256
 1744 75 1314 0 891 0 c 256
 468 0 37 75 37 515 c 256
 37 637 60 777 90 875 c 257
 396 793 l 257
 375 723 350 609 350 528 c 256
 350 325 663 315 891 315 c 256
 1119 315 1431 325 1431 528 c 256
 1431 609 1406 723 1385 793 c 257
 1691 875 l 257
EndSplineSet
Colour: ff00ff
EndChar

StartChar: uniE039
Encoding: 57401 57401 486
GlifName: uniE_039
Width: 1498
VWidth: 2150
GlyphClass: 2
Flags: HMW
LayerCount: 2
Fore
SplineSet
1164 312 m 1
 1146 495 1098 570 1029 570 c 0
 961 570 916 496 916 389 c 0
 916 319 942 299 1040 299 c 0
 1084 299 1131 303 1164 312 c 1
1133 13 m 1
 1098 7 1043 0 1000 0 c 0
 779 0 640 130 640 375 c 0
 640 611 770 890 1036 890 c 0
 1343 890 1462 582 1462 197 c 0
 1462 -282 1164 -531 693 -531 c 0
 374 -531 37 -363 37 56 c 0
 37 281 102 440 193 609 c 1
 465 457 l 1
 391 315 352 186 352 56 c 0
 352 -115 454 -216 712 -216 c 0
 979 -216 1084 -128 1133 13 c 1
EndSplineSet
Colour: ff00ff
EndChar

StartChar: uniE03A
Encoding: 57402 57402 487
GlifName: uniE_03A_
Width: 0
VWidth: 2150
GlyphClass: 2
Flags: HMW
LayerCount: 2
Fore
SplineSet
-63 1984 m 257
 63 1984 l 257
 63 1617 l 257
 -63 1617 l 257
 -63 1984 l 257
EndSplineSet
Colour: ff00ff
EndChar

StartChar: uniE03B
Encoding: 57403 57403 488
GlifName: uniE_03B_
Width: 1745
VWidth: 2150
GlyphClass: 2
Flags: HMW
LayerCount: 2
Fore
SplineSet
1393 719 m 1
 1373 906 1322 985 1254 985 c 0
 1186 985 1137 909 1137 801 c 0
 1137 732 1160 706 1258 706 c 0
 1306 706 1356 708 1393 719 c 1
1709 545 m 0
 1709 55 1359 0 855 0 c 0
 375 0 37 64 37 504 c 0
 37 626 66 756 96 854 c 1
 401 772 l 1
 380 702 353 599 353 518 c 0
 353 315 587 315 931 315 c 0
 1290 315 1406 326 1429 448 c 1
 1362 428 1299 421 1228 421 c 0
 1015 421 868 527 868 769 c 0
 868 998 980 1298 1259 1298 c 0
 1681 1298 1709 720 1709 545 c 0
EndSplineSet
Colour: ff00ff
EndChar

StartChar: uniE03C
Encoding: 57404 57404 489
GlifName: uniE_03C_
Width: 1787
VWidth: 2150
GlyphClass: 2
Flags: HMW
LayerCount: 2
Fore
SplineSet
96 854 m 257
 401 772 l 257
 380 702 353 599 353 518 c 256
 353 315 586 315 814 315 c 256
 1087 315 1208 365 1208 467 c 256
 1208 581 944 805 736 960 c 257
 736 1216 l 257
 1024 1404 1342 1541 1677 1609 c 257
 1740 1300 l 257
 1523 1255 1313 1181 1104 1070 c 257
 1104 1068 l 257
 1304 894 1523 685 1523 436 c 256
 1523 76 1125 0 768 0 c 256
 398 0 37 64 37 504 c 256
 37 626 66 756 96 854 c 257
EndSplineSet
Colour: ff00ff
EndChar

StartChar: uniE03D
Encoding: 57405 57405 490
GlifName: uniE_03D_
Width: 1545
VWidth: 2150
GlyphClass: 2
Flags: HMW
LayerCount: 2
Fore
SplineSet
1062 644 m 257
 1360 787 l 257
 1442 597 1510 433 1510 170 c 256
 1510 -282 1182 -510 772 -510 c 256
 362 -510 35 -308 35 154 c 256
 35 371 81 564 143 732 c 1
 435 636 l 1
 380 487 341 319 341 185 c 256
 341 -43 472 -195 772 -195 c 256
 1104 -195 1194 -25 1194 165 c 0
 1194 315 1136 477 1062 644 c 257
EndSplineSet
Colour: ff00ff
EndChar

StartChar: uniE03E
Encoding: 57406 57406 491
GlifName: uniE_03E_
Width: 1530
VWidth: 2150
GlyphClass: 2
Flags: HMW
LayerCount: 2
Fore
SplineSet
1444 912 m 1
 1343 642 l 1
 1281 665 1213 676 1149 676 c 0
 1002 676 876 614 876 472 c 0
 876 380 922 368 1080 348 c 0
 1295 321 1493 278 1493 -37 c 0
 1493 -375 1111 -531 771 -531 c 0
 241 -531 42 -300 42 65 c 0
 42 207 67 365 113 545 c 1
 397 476 l 1
 368 331 348 204 348 102 c 0
 348 -104 435 -216 771 -216 c 0
 1056 -216 1178 -121 1178 -50 c 0
 1178 7 1160 16 1010 34 c 0
 737 66 562 124 562 430 c 0
 562 752 793 988 1132 988 c 0
 1255 988 1349 958 1444 912 c 1
EndSplineSet
Colour: ff00ff
EndChar

StartChar: uniE03F
Encoding: 57407 57407 492
GlifName: uniE_03F_
Width: 1861
VWidth: 2150
GlyphClass: 2
Flags: HMW
LayerCount: 2
Fore
SplineSet
1861 315 m 257
 1861 0 l 257
 1860 0 l 257
 1674 0 1508 84 1415 213 c 257
 1267 50 1030 0 768 0 c 256
 398 0 37 64 37 504 c 256
 37 626 66 756 96 854 c 257
 401 772 l 257
 380 702 353 599 353 518 c 256
 353 315 586 315 814 315 c 256
 1087 315 1208 365 1208 467 c 256
 1208 581 944 805 736 960 c 257
 736 1216 l 257
 1024 1404 1342 1541 1677 1609 c 257
 1740 1300 l 257
 1523 1255 1313 1181 1104 1070 c 257
 1104 1068 l 257
 1316 897 1423 718 1500 586 c 256
 1595 422 1667 315 1860 315 c 257
 1861 315 l 257
EndSplineSet
Colour: ff00ff
EndChar

StartChar: uniE040
Encoding: 57408 57408 493
GlifName: uniE_040
Width: 1741
VWidth: 2150
GlyphClass: 2
Flags: HMW
LayerCount: 2
Fore
SplineSet
143 732 m 1
 436 636 l 1
 380 484 341 335 341 198 c 0
 341 -16 443 -195 772 -195 c 0
 1090 -195 1193 -47 1193 181 c 0
 1193 314 1131 484 1062 644 c 1
 1360 787 l 1
 1476 477 l 2
 1520 360 1573 314 1740 314 c 2
 1741 314 l 1
 1741 -1 l 1
 1740 -1 l 2
 1652 -1 1564 22 1503 64 c 1
 1462 -310 1151 -510 772 -510 c 0
 362 -510 35 -302 35 144 c 0
 35 361 81 564 143 732 c 1
EndSplineSet
Colour: ff00ff
EndChar

StartChar: uniE041
Encoding: 57409 57409 494
GlifName: uniE_041
Width: 574
VWidth: 2150
GlyphClass: 2
Flags: HMW
LayerCount: 2
Back
SplineSet
451.610351562 952.583007812 m 257
 506.223632812 795.043945312 537.731445312 641.70703125 537.731445312 506.223632812 c 256
 537.731445312 209.000976562 386.494140625 0 0 0 c 256
 -87.1708984375 0 -157.538085938 70.3671875 -157.538085938 157.538085938 c 256
 -157.538085938 244.709960938 -87.1708984375 315.077148438 0 315.077148438 c 256
 172.2421875 315.077148438 223.705078125 401.198242188 223.705078125 520.926757812 c 256
 223.705078125 623.852539062 186.9453125 745.681640625 154.387695312 852.80859375 c 257
 451.610351562 952.583007812 l 257
EndSplineSet
Fore
SplineSet
466 910 m 17
 512 768 538 629 538 506 c 256
 538 209 386 0 0 0 c 256
 -87 0 -158 71 -158 158 c 256
 -158 245 -87 315 0 315 c 256
 172 315 224 401 224 521 c 256
 224 615 193 723 163 823 c 9
 466 910 l 17
EndSplineSet
Colour: ff00ff
EndChar

StartChar: uniE042
Encoding: 57410 57410 495
GlifName: uniE_042
Width: 805
VWidth: 2150
GlyphClass: 2
Flags: HMW
LayerCount: 2
Fore
SplineSet
0 315 m 256
 112 315 174 326 208 365 c 256
 240 401 246 461 246 559 c 258
 246 755 l 257
 561 755 l 257
 561 559 l 258
 561 457 568 396 603 360 c 256
 637 325 696 315 803 315 c 258
 805 315 l 257
 805 0 l 257
 803 0 l 257
 638 0 505 40 403 135 c 257
 300 38 162 0 0 0 c 256
 -87 0 -158 71 -158 158 c 256
 -158 245 -87 315 0 315 c 256
EndSplineSet
Colour: ff00ff
EndChar

StartChar: uniE043
Encoding: 57411 57411 496
GlifName: uniE_043
Width: 1467
VWidth: 2150
GlyphClass: 2
Flags: HMW
LayerCount: 2
Fore
SplineSet
1467 315 m 257
 1467 0 l 257
 1365 0 l 257
 1392 -61 1404 -119 1404 -170 c 0
 1404 -468 1013 -612 729 -612 c 256
 232 -612 37 -354 37 35 c 0
 37 219 92 476 165 691 c 257
 461 590 l 257
 401 407 346 174 346 24 c 0
 346 -162 425 -297 731 -297 c 256
 1069 -297 1099 -168 1099 -130 c 256
 1099 -61 980 0 727 0 c 257
 727 315 l 257
 1467 315 l 257
EndSplineSet
Colour: ff00ff
EndChar

StartChar: uniE044
Encoding: 57412 57412 497
GlifName: uniE_044
Width: 625
VWidth: 2150
GlyphClass: 2
Flags: HMW
LayerCount: 2
Fore
SplineSet
105 1424 m 257
 420 1424 l 257
 420 489 l 258
 420 421 427 379 450 353 c 256
 477 323 528 315 624 315 c 257
 625 315 l 257
 625 0 l 257
 624 0 l 257
 454 0 322 45 233 132 c 256
 150 214 105 334 105 489 c 258
 105 1424 l 257
EndSplineSet
Colour: ff00ff
EndChar

StartChar: uniE045
Encoding: 57413 57413 498
GlifName: uniE_045
Width: 1477
VWidth: 2150
GlyphClass: 2
Flags: HMW
LayerCount: 2
Fore
SplineSet
1304 -321 m 1
 1417 -614 l 1
 1209 -704 993 -748 768 -748 c 0
 374 -748 37 -573 37 -162 c 0
 37 264 462 501 895 628 c 1
 598 716 l 2
 565 727 536 732 510 732 c 0
 424 732 370 671 353 513 c 1
 82 561 l 1
 117 819 259 1046 517 1046 c 0
 582 1046 654 1033 735 1000 c 2
 1338 781 l 1
 1338 460 l 1
 1299 451 1201 425 1164 414 c 1
 1222 348 1354 315 1476 315 c 2
 1477 315 l 1
 1477 0 l 1
 1476 0 l 2
 1204 0 986 123 875 315 c 1
 561 194 352 29 352 -162 c 0
 352 -344 520 -419 744 -419 c 0
 940 -419 1141 -382 1304 -321 c 1
EndSplineSet
Colour: ff00ff
EndChar

StartChar: uniE046
Encoding: 57414 57414 499
GlifName: uniE_046
Width: 1377
VWidth: 2150
GlyphClass: 2
Flags: HMW
LayerCount: 2
Fore
SplineSet
64 561 m 257
 97 748 190 1037 468 1037 c 0
 536 1037 615 1019 707 979 c 258
 1320 715 l 257
 1320 436 l 257
 895 167 561 0 0 0 c 256
 -87 0 -158 71 -158 158 c 256
 -158 245 -87 315 0 315 c 256
 397 315 664 393 914 561 c 257
 569 695 l 258
 537 708 509 716 483 716 c 0
 409 716 360 657 335 513 c 257
 64 561 l 257
EndSplineSet
Colour: ff00ff
EndChar

StartChar: uniE047
Encoding: 57415 57415 500
GlifName: uniE_047
Width: 1382
VWidth: 2150
GlyphClass: 2
Flags: HMW
LayerCount: 2
Fore
SplineSet
64 561 m 1
 97 748 190 1037 467 1037 c 0
 535 1037 615 1019 707 979 c 2
 1320 715 l 1
 1320 436 l 1
 1265 401 1213 368 1162 338 c 1
 1233 322 1300 315 1381 315 c 2
 1382 315 l 1
 1382 0 l 1
 1381 0 l 2
 1191 0 1036 73 913 203 c 1
 646 74 374 0 0 0 c 0
 -87 0 -158 71 -158 158 c 0
 -158 245 -87 315 0 315 c 0
 397 315 664 393 914 561 c 1
 569 695 l 2
 536 708 508 715 482 715 c 0
 408 715 360 657 335 513 c 1
 64 561 l 1
EndSplineSet
Colour: ff00ff
EndChar

StartChar: uniE048
Encoding: 57416 57416 501
GlifName: uniE_048
Width: 1239
VWidth: 2150
GlyphClass: 2
Flags: HMW
LayerCount: 2
Fore
SplineSet
1239 315 m 257
 1239 0 l 257
 1238 0 l 257
 1090 0 952 29 839 138 c 257
 742 43 581 0 420 0 c 0
 268 0 117 39 21 110 c 257
 114 378 l 257
 201 336 341 315 451 315 c 256
 593 315 645 359 645 426 c 0
 645 451 638 480 625 510 c 258
 423 985 l 257
 712 1111 l 257
 953 548 l 258
 1050 321 1062 315 1238 315 c 257
 1239 315 l 257
EndSplineSet
Colour: ff00ff
EndChar

StartChar: uniE049
Encoding: 57417 57417 502
GlifName: uniE_049
Width: 974
VWidth: 2150
GlyphClass: 2
Flags: HMW
LayerCount: 2
Fore
SplineSet
384 666 m 257
 677 782 l 257
 764 525 l 258
 828 335 856 315 973 315 c 257
 974 315 l 257
 974 0 l 257
 973 0 l 258
 905 0 858 10 789 36 c 257
 746 -237 453 -441 128 -559 c 257
 21 -263 l 257
 321 -154 498 -20 498 213 c 256
 498 334 446 514 384 666 c 257
EndSplineSet
Colour: ff00ff
EndChar

StartChar: uniE04A
Encoding: 57418 57418 503
GlifName: uniE_04A_
Width: 2692
VWidth: 2150
GlyphClass: 2
Flags: HMW
LayerCount: 2
Fore
SplineSet
2405 851 m 257
 2436 620 l 258
 2451 506 2463 425 2505 376 c 0
 2541 335 2595 315 2691 315 c 258
 2692 315 l 257
 2692 0 l 257
 2691 0 l 257
 2554 0 2419 31 2321 108 c 257
 2246 37 2147 0 2057 0 c 0
 1962 0 1866 39 1802 118 c 257
 1760 39 1676 0 1589 0 c 0
 1543 0 1489 11 1442 33 c 1
 1396 -325 1098 -489 740 -489 c 0
 351 -489 37 -308 37 133 c 0
 37 350 83 564 145 732 c 1
 431 639 l 1
 384 484 343 325 343 188 c 0
 343 -26 432 -174 740 -174 c 0
 1037 -174 1131 -56 1131 172 c 0
 1131 325 1077 494 1008 654 c 1
 1314 797 l 1
 1420 477 l 2
 1459 360 1495 315 1563 315 c 0
 1633 315 1669 365 1669 532 c 258
 1669 720 l 257
 1931 720 l 257
 1931 532 l 258
 1931 410 1946 315 2042 315 c 256
 2117 315 2137 365 2137 436 c 256
 2137 504 2130 599 2112 695 c 2
 2092 803 l 257
 2405 851 l 257
EndSplineSet
Colour: ff00ff
EndChar

StartChar: uniE04B
Encoding: 57419 57419 504
GlifName: uniE_04B_
Width: 1622
VWidth: 2150
GlyphClass: 2
Flags: HMW
LayerCount: 2
Fore
SplineSet
1534 851 m 257
 1567 702 1586 597 1586 436 c 256
 1586 320 1550 215 1486 137 c 256
 1416 51 1311 0 1185 0 c 256
 1083 0 991 36 924 96 c 257
 856 35 766 0 664 0 c 256
 548 0 448 46 380 118 c 257
 288 38 161 0 0 0 c 256
 -87 0 -158 71 -158 158 c 256
 -158 245 -87 315 0 315 c 256
 112 315 173 328 207 369 c 0
 243 413 246 490 246 619 c 258
 246 752 l 257
 561 752 l 257
 561 532 l 258
 561 453 561 393 585 356 c 0
 602 330 632 315 680 315 c 256
 727 315 755 331 771 358 c 0
 793 396 793 456 793 532 c 258
 793 741 l 257
 1056 741 l 257
 1056 532 l 258
 1056 460 1055 401 1073 363 c 0
 1088 331 1114 315 1161 315 c 256
 1219 315 1247 334 1261 370 c 0
 1269 392 1273 421 1273 457 c 0
 1273 553 1252 675 1227 786 c 257
 1534 851 l 257
EndSplineSet
Colour: ff00ff
EndChar

StartChar: uniE04C
Encoding: 57420 57420 505
GlifName: uniE_04C_
Width: 1822
VWidth: 2150
GlyphClass: 2
Flags: HMW
LayerCount: 2
Fore
SplineSet
1534 851 m 257
 1565 620 l 258
 1580 507 1593 426 1635 377 c 0
 1671 335 1726 315 1821 315 c 258
 1822 315 l 257
 1822 0 l 257
 1821 0 l 257
 1684 0 1558 31 1460 108 c 257
 1390 40 1293 0 1185 0 c 256
 1082 0 991 39 924 99 c 257
 856 37 767 0 664 0 c 256
 548 0 448 46 380 118 c 257
 288 38 161 0 0 0 c 256
 -87 0 -158 71 -158 158 c 256
 -158 245 -87 315 0 315 c 256
 112 315 173 328 207 369 c 0
 243 413 246 490 246 619 c 258
 246 752 l 257
 561 752 l 257
 561 532 l 258
 561 447 562 388 587 352 c 0
 605 328 634 315 681 315 c 256
 725 315 751 328 768 352 c 0
 792 388 793 449 793 532 c 258
 793 741 l 257
 1056 741 l 257
 1056 532 l 258
 1056 456 1056 400 1071 364 c 0
 1085 332 1110 316 1159 316 c 256
 1216 316 1245 334 1260 370 c 0
 1268 390 1272 415 1272 447 c 0
 1272 560 1247 681 1221 803 c 257
 1534 851 l 257
EndSplineSet
Colour: ff00ff
EndChar

StartChar: uniE04D
Encoding: 57421 57421 506
GlifName: uniE_04D_
Width: 2526
VWidth: 2150
GlyphClass: 2
Flags: HMW
LayerCount: 2
Fore
SplineSet
1398 513 m 1
 1589 780 1838 932 2034 932 c 0
 2239 932 2460 791 2460 531 c 0
 2460 452 2440 385 2405 325 c 1
 2432 319 2470 315 2525 315 c 2
 2526 315 l 1
 2526 0 l 1
 2525 0 l 2
 2360 0 2241 37 2151 106 c 1
 2001 32 1825 0 1690 0 c 0
 1602 0 1516 4 1436 19 c 1
 1378 -335 1115 -500 751 -500 c 0
 341 -500 37 -318 37 144 c 0
 37 361 83 564 145 732 c 1
 437 636 l 1
 382 487 343 307 343 173 c 0
 343 -55 433 -185 751 -185 c 0
 1073 -185 1135 -22 1135 168 c 0
 1135 318 1072 477 998 644 c 1
 1296 787 l 1
 1335 696 1371 609 1398 513 c 1
1622 315 m 1
 1644 315 1666 315 1690 315 c 0
 2022 315 2145 432 2145 510 c 0
 2145 571 2095 617 2013 617 c 0
 1926 617 1780 558 1622 315 c 1
EndSplineSet
Colour: ff00ff
EndChar

StartChar: uniE04E
Encoding: 57422 57422 507
GlifName: uniE_04E_
Width: 1677
VWidth: 2150
GlyphClass: 2
Flags: HMW
LayerCount: 2
Fore
SplineSet
0 315 m 256
 114 315 174 331 207 378 c 0
 237 421 246 490 246 603 c 258
 246 752 l 257
 561 752 l 257
 561 603 l 258
 561 575 561 498 561 471 c 257
 746 798 1001 932 1215 932 c 256
 1420 932 1641 791 1641 531 c 256
 1641 149 1162 0 871 0 c 256
 686 0 511 17 390 118 c 257
 288 27 145 0 0 0 c 256
 -87 0 -158 71 -158 158 c 256
 -158 245 -87 315 0 315 c 256
802 315 m 257
 824 315 847 315 871 315 c 256
 1203 315 1325 432 1325 510 c 256
 1325 571 1276 617 1194 617 c 256
 1107 617 960 558 802 315 c 257
EndSplineSet
Colour: ff00ff
EndChar

StartChar: uniE04F
Encoding: 57423 57423 508
GlifName: uniE_04F_
Width: 1717
VWidth: 2150
GlyphClass: 2
Flags: HMW
LayerCount: 2
Fore
SplineSet
802 315 m 257
 824 315 847 315 871 315 c 256
 1203 315 1325 432 1325 510 c 256
 1325 571 1276 617 1194 617 c 256
 1107 617 960 558 802 315 c 257
561 752 m 257
 561 599 l 258
 561 567 561 513 561 471 c 257
 746 798 1001 932 1215 932 c 256
 1420 932 1641 791 1641 531 c 256
 1641 455 1620 387 1586 328 c 257
 1615 319 1657 315 1716 315 c 257
 1717 315 l 257
 1717 0 l 257
 1716 0 l 257
 1569 0 1438 30 1340 108 c 257
 1191 31 1016 0 871 0 c 256
 684 0 511 18 390 118 c 257
 287 30 150 0 0 0 c 256
 -87 0 -158 71 -158 158 c 256
 -158 245 -87 315 0 315 c 256
 112 315 173 333 207 378 c 0
 242 425 246 502 246 619 c 258
 246 752 l 257
 561 752 l 257
EndSplineSet
Colour: ff00ff
EndChar

StartChar: uniE050
Encoding: 57424 57424 509
GlifName: uniE_050
Width: 1594
VWidth: 2150
GlyphClass: 2
Flags: HMW
LayerCount: 2
Fore
SplineSet
687 315 m 257
 1168 315 1203 418 1203 497 c 256
 1203 558 1161 617 1071 617 c 256
 988 617 815 547 687 326 c 257
 687 315 l 257
323 315 m 257
 323 1424 l 257
 639 1424 l 257
 639 673 l 257
 789 841 954 932 1120 932 c 256
 1297 932 1518 791 1518 531 c 256
 1518 456 1504 388 1474 325 c 257
 1503 318 1542 315 1593 315 c 257
 1594 315 l 257
 1594 0 l 257
 1593 0 l 257
 1452 0 1325 24 1224 103 c 257
 1055 29 816 0 481 0 c 258
 37 0 l 257
 37 315 l 257
 323 315 l 257
EndSplineSet
Colour: ff00ff
EndChar

StartChar: uniE051
Encoding: 57425 57425 510
GlifName: uniE_051
Width: 1344
VWidth: 2150
GlyphClass: 2
Flags: HMW
LayerCount: 2
Fore
SplineSet
477 315 m 257
 958 315 992 418 992 497 c 256
 992 558 951 617 861 617 c 256
 778 617 605 547 477 326 c 257
 477 315 l 257
0 315 m 258
 113 315 l 257
 113 1424 l 257
 429 1424 l 257
 429 673 l 257
 579 841 743 932 904 932 c 256
 1087 932 1308 791 1308 531 c 256
 1308 168 997 0 271 0 c 258
 0 0 l 258
 -87 0 -158 71 -158 158 c 256
 -158 245 -87 315 0 315 c 258
EndSplineSet
Colour: ff00ff
EndChar

StartChar: uniE052
Encoding: 57426 57426 511
GlifName: uniE_052
Width: 1384
VWidth: 2150
GlyphClass: 2
Flags: HMW
LayerCount: 2
Fore
SplineSet
477 315 m 257
 958 315 992 418 992 497 c 256
 992 558 951 617 861 617 c 256
 778 617 605 547 477 326 c 257
 477 315 l 257
0 315 m 258
 113 315 l 257
 113 1424 l 257
 429 1424 l 257
 429 673 l 257
 578 840 741 932 882 932 c 256
 1087 932 1308 791 1308 531 c 256
 1308 456 1293 388 1263 325 c 257
 1292 318 1332 315 1383 315 c 257
 1384 315 l 257
 1384 0 l 257
 1383 0 l 257
 1242 0 1114 24 1013 103 c 257
 844 29 606 0 271 0 c 258
 0 0 l 258
 -87 0 -158 71 -158 158 c 256
 -158 245 -87 315 0 315 c 258
EndSplineSet
Colour: ff00ff
EndChar

StartChar: uniE053
Encoding: 57427 57427 512
GlifName: uniE_053
Width: 1243
VWidth: 2150
GlyphClass: 2
Flags: HMW
LayerCount: 2
Fore
SplineSet
1141 602 m 0
 1141 493 1083 389 1024 329 c 1
 1081 320 1175 315 1242 315 c 2
 1244 315 l 1
 1244 0 l 1
 1242 0 l 2
 1036 0 829 50 711 119 c 1
 466 27 352 -107 352 -244 c 0
 352 -402 549 -465 760 -465 c 0
 912 -465 1056 -436 1153 -393 c 1
 1260 -677 l 1
 1120 -739 937 -777 756 -777 c 0
 385 -777 37 -626 37 -248 c 0
 37 16 224 201 447 313 c 1
 381 369 235 492 150 576 c 1
 156 772 l 1
 301 911 510 973 698 973 c 0
 901 973 1141 845 1141 602 c 0
853 578 m 0
 853 619 808 669 690 669 c 0
 633 669 562 655 506 628 c 1
 506 622 l 1
 569 559 647 482 716 424 c 1
 796 469 853 536 853 578 c 0
EndSplineSet
Colour: ff00ff
EndChar

StartChar: uniE054
Encoding: 57428 57428 513
GlifName: uniE_054
Width: 1158
VWidth: 2150
GlyphClass: 2
Flags: HMW
LayerCount: 2
Fore
SplineSet
401 527 m 256
 401 424 485 383 587 383 c 256
 612 383 639 386 665 391 c 258
 1029 461 l 257
 1088 150 l 257
 519 42 l 258
 368 14 174 0 0 0 c 256
 -88 0 -156 73 -156 158 c 256
 -156 243 -88 315 0 315 c 256
 36 315 101 315 135 315 c 257
 103 374 86 436 86 515 c 256
 86 801 300 1040 583 1040 c 256
 808 1040 935 883 1027 756 c 257
 804 604 l 257
 753 675 679 725 591 725 c 256
 474 725 401 632 401 527 c 256
EndSplineSet
Colour: ff00ff
EndChar

StartChar: uniE055
Encoding: 57429 57429 514
GlifName: uniE_055
Width: 1126
VWidth: 2150
GlyphClass: 2
Flags: HMW
LayerCount: 2
Fore
SplineSet
75 772 m 1
 220 911 429 973 617 973 c 0
 820 973 1059 845 1059 602 c 0
 1059 493 1000 389 941 329 c 1
 991 317 1058 315 1125 315 c 2
 1126 315 l 1
 1126 0 l 1
 1125 0 l 2
 919 0 768 43 650 112 c 257
 471 43 212 0 0 0 c 256
 -87 0 -158 71 -158 158 c 256
 -158 245 -87 315 0 315 c 256
 102 315 292 315 350 320 c 1
 286 376 153 492 68 576 c 1
 75 772 l 1
424 628 m 1
 424 622 l 1
 487 559 565 482 634 424 c 1
 714 469 771 536 771 578 c 0
 771 619 726 669 608 669 c 0
 551 669 480 655 424 628 c 1
EndSplineSet
Colour: ff00ff
EndChar

StartChar: uniE056
Encoding: 57430 57430 515
GlifName: uniE_056
Width: 1738
VWidth: 2150
GlyphClass: 2
Flags: HMW
LayerCount: 2
Fore
SplineSet
1178 1424 m 257
 1493 1424 l 257
 1493 622 l 258
 1493 494 1497 410 1544 364 c 256
 1579 329 1637 315 1737 315 c 258
 1738 315 l 257
 1738 0 l 257
 1737 0 l 257
 1627 0 1522 22 1434 72 c 256
 1397 93 1363 118 1334 150 c 257
 1300 118 1258 91 1209 70 c 256
 1084 17 942 0 732 0 c 256
 388 0 37 33 37 475 c 256
 37 591 57 706 81 803 c 257
 374 740 l 257
 354 641 342 566 342 507 c 0
 342 330 448 315 741 315 c 256
 962 315 1057 316 1121 381 c 256
 1165 425 1178 500 1178 622 c 258
 1178 1424 l 257
EndSplineSet
Colour: ff00ff
EndChar

StartChar: uniE057
Encoding: 57431 57431 516
GlifName: uniE_057
Width: 1050
VWidth: 2150
GlyphClass: 2
Flags: HMW
LayerCount: 2
Fore
SplineSet
0 315 m 258
 180 315 l 258
 381 315 471 385 471 467 c 256
 471 581 207 805 -1 960 c 257
 -1 1216 l 257
 287 1404 605 1541 940 1609 c 257
 1003 1300 l 257
 786 1255 576 1181 367 1070 c 257
 367 1068 l 257
 567 894 786 685 786 436 c 256
 786 76 342 0 187 0 c 258
 0 0 l 258
 -87 0 -158 71 -158 158 c 257
 -158 245 -87 315 0 315 c 258
EndSplineSet
Colour: ff00ff
EndChar

StartChar: uniE058
Encoding: 57432 57432 517
GlifName: uniE_058
Width: 1123
VWidth: 2150
GlyphClass: 2
Flags: HMW
LayerCount: 2
Fore
SplineSet
0 315 m 258
 180 315 l 258
 381 315 471 385 471 467 c 256
 471 581 207 805 -1 960 c 257
 -1 1216 l 257
 287 1404 605 1541 940 1609 c 257
 1003 1300 l 257
 786 1255 576 1181 367 1070 c 257
 367 1068 l 257
 579 897 685 718 762 586 c 256
 857 422 929 315 1122 315 c 258
 1123 315 l 257
 1123 0 l 257
 1122 0 l 258
 936 0 770 74 677 203 c 257
 565 79 410 0 187 0 c 258
 0 0 l 258
 -87 0 -158 71 -158 158 c 257
 -158 245 -87 315 0 315 c 258
EndSplineSet
Colour: ff00ff
EndChar

StartChar: uniE059
Encoding: 57433 57433 518
GlifName: uniE_059
Width: 1539
VWidth: 2150
GlyphClass: 2
Flags: HMW
LayerCount: 2
Fore
SplineSet
1539 315 m 257
 1539 0 l 257
 1538 0 l 257
 1449 0 1362 16 1292 57 c 257
 1292 51 l 2
 1292 -282 1011 -531 633 -531 c 256
 281 -531 37 -334 37 -28 c 256
 37 147 70 311 133 481 c 257
 417 378 l 257
 367 216 351 118 351 23 c 256
 351 -122 441 -216 654 -216 c 256
 885 -216 981 -107 981 124 c 258
 981 1424 l 257
 1296 1424 l 257
 1296 619 l 258
 1296 476 1322 397 1345 368 c 256
 1367 341 1407 315 1538 315 c 257
 1539 315 l 257
EndSplineSet
Colour: ff00ff
EndChar

StartChar: uniE05A
Encoding: 57434 57434 519
GlifName: uniE_05A_
Width: 625
VWidth: 2150
GlyphClass: 2
Flags: HMW
LayerCount: 2
Fore
SplineSet
521 489 m 258
 521 334 476 214 393 132 c 256
 304 45 170 0 0 0 c 256
 -87 0 -158 71 -158 158 c 256
 -158 245 -87 315 0 315 c 256
 97 315 149 323 176 353 c 256
 199 379 206 421 206 489 c 258
 206 1424 l 257
 521 1424 l 257
 521 489 l 258
EndSplineSet
Colour: ff00ff
EndChar

StartChar: uniE05B
Encoding: 57435 57435 520
GlifName: uniE_05B_
Width: 726
VWidth: 2150
GlyphClass: 2
Flags: HMW
LayerCount: 2
Fore
SplineSet
0 315 m 256
 96 315 147 326 174 360 c 0
 204 398 206 466 206 577 c 258
 206 1424 l 257
 521 1424 l 257
 521 577 l 258
 521 466 522 398 552 360 c 0
 579 326 630 315 725 315 c 258
 726 315 l 257
 726 0 l 257
 725 0 l 257
 554 0 445 40 363 143 c 257
 285 42 167 0 0 0 c 256
 -87 0 -158 71 -158 158 c 256
 -158 245 -87 315 0 315 c 256
EndSplineSet
Colour: ff00ff
EndChar

StartChar: uniE05C
Encoding: 57436 57436 521
GlifName: uniE_05C_
Width: 1403
VWidth: 2150
GlyphClass: 2
Flags: HMW
LayerCount: 2
Fore
SplineSet
639 356 m 1
 711 333 776 315 833 315 c 0
 905 315 917 347 917 410 c 0
 917 515 854 570 801 570 c 0
 733 570 665 510 639 356 c 1
1403 0 m 1
 1402 0 l 2
 1280 0 1180 34 1095 97 c 1
 1015 31 913 0 817 0 c 0
 696 0 584 30 498 64 c 0
 450 83 439 86 410 86 c 0
 370 86 352 71 352 -28 c 2
 352 -772 l 1
 37 -772 l 1
 37 -28 l 2
 37 208 148 340 337 389 c 1
 379 594 493 895 818 895 c 0
 1074 895 1207 674 1233 467 c 0
 1249 344 1278 315 1402 315 c 2
 1403 315 l 1
 1403 0 l 1
EndSplineSet
Colour: ff00ff
EndChar

StartChar: uniE05D
Encoding: 57437 57437 522
GlifName: uniE_05D_
Width: 1105
VWidth: 2150
GlyphClass: 2
Flags: HMW
LayerCount: 2
Fore
SplineSet
0 315 m 256
 79 315 128 367 170 441 c 0
 188 473 206 507 223 543 c 0
 301 707 391 895 655 895 c 256
 924 895 1069 625 1069 414 c 256
 1069 197 905 0 659 0 c 256
 520 0 408 54 340 147 c 257
 258 50 133 0 0 0 c 256
 -87 0 -158 71 -158 158 c 256
 -158 245 -87 315 0 315 c 256
475 399 m 257
 533 349 605 315 656 315 c 256
 699 315 754 346 754 414 c 256
 754 520 690 586 635 586 c 256
 586 586 534 560 486 429 c 257
 475 399 l 257
EndSplineSet
Colour: ff00ff
EndChar

StartChar: uniE05E
Encoding: 57438 57438 523
GlifName: uniE_05E_
Width: 1300
VWidth: 2150
GlyphClass: 2
Flags: HMW
LayerCount: 2
Fore
SplineSet
0 315 m 0
 79 315 128 367 170 441 c 0
 188 473 206 507 223 543 c 0
 301 707 391 895 655 895 c 0
 902 895 1045 666 1066 465 c 0
 1071 416 1089 388 1106 368 c 0
 1127 342 1168 315 1299 315 c 2
 1300 315 l 1
 1300 0 l 1
 1299 0 l 2
 1165 0 1039 41 962 132 c 1
 890 52 786 0 659 0 c 0
 520 0 408 54 340 147 c 1
 258 50 133 0 0 0 c 0
 -87 0 -158 71 -158 158 c 0
 -158 245 -87 315 0 315 c 0
475 399 m 1
 533 349 605 315 656 315 c 0
 699 315 754 346 754 414 c 0
 754 520 690 586 635 586 c 0
 586 586 534 560 486 429 c 2
 475 399 l 1
EndSplineSet
Colour: ff00ff
EndChar

StartChar: uniE05F
Encoding: 57439 57439 524
GlifName: uniE_05F_
Width: 1098
VWidth: 2150
GlyphClass: 2
Flags: HMW
LayerCount: 2
Fore
SplineSet
567 713 m 257
 396 706 327 614 327 552 c 0
 327 503 379 461 489 461 c 0
 517 461 548 466 581 474 c 257
 567 713 l 257
1098 0 m 257
 1097 0 l 257
 862 0 768 61 668 198 c 257
 625 174 560 161 489 161 c 0
 291 161 37 264 37 524 c 256
 37 833 311 969 547 1023 c 257
 540 1167 l 257
 855 1186 l 257
 893 530 l 258
 901 381 934 315 1097 315 c 257
 1098 315 l 257
 1098 0 l 257
EndSplineSet
Colour: ff00ff
EndChar

StartChar: uniE060
Encoding: 57440 57440 525
GlifName: uniE_060
Width: 1365
VWidth: 2150
GlyphClass: 2
Flags: HMW
LayerCount: 2
Fore
SplineSet
0 315 m 0
 41 315 93 317 131 319 c 1
 89 387 67 465 67 543 c 0
 67 653 112 765 204 858 c 1
 61 906 l 1
 160 1187 l 1
 725 982 l 2
 1148 829 1329 674 1329 401 c 0
 1329 183 1167 0 897 0 c 0
 753 0 664 15 496 68 c 1
 353 22 168 0 0 0 c 0
 -87 0 -158 71 -158 158 c 0
 -158 245 -87 315 0 315 c 0
464 392 m 1
 547 429 601 485 601 582 c 0
 601 652 567 711 486 711 c 0
 408 711 368 643 368 557 c 0
 368 489 403 435 464 392 c 1
759 327 m 1
 805 320 855 315 903 315 c 0
 965 315 1020 335 1020 406 c 0
 1020 470 965 543 861 584 c 1
 857 497 815 389 759 327 c 1
EndSplineSet
Colour: ff00ff
EndChar

StartChar: uniE061
Encoding: 57441 57441 526
GlifName: uniE_061
Width: 1140
VWidth: 2150
GlyphClass: 2
Flags: HMW
LayerCount: 2
Fore
SplineSet
405 356 m 257
 531 389 639 440 639 562 c 256
 639 606 621 645 571 645 c 256
 508 645 405 549 405 356 c 257
1140 0 m 257
 1139 0 l 258
 967 0 861 -100 861 -269 c 258
 861 -393 l 257
 652 -530 l 257
 385 -460 209 -270 130 0 c 257
 87 0 45 0 0 0 c 257
 -87 0 -158 71 -158 158 c 256
 -158 245 -87 315 0 315 c 257
 38 315 71 315 106 315 c 257
 128 637 251 960 571 960 c 256
 772 960 887 810 887 601 c 256
 887 315 619 76 425 38 c 257
 458 -55 521 -146 592 -194 c 257
 601 -189 l 257
 601 -187 l 258
 601 72 869 315 1139 315 c 258
 1140 315 l 257
 1140 0 l 257
EndSplineSet
Colour: ff00ff
EndChar

StartChar: uniE062
Encoding: 57442 57442 527
GlifName: uniE_062
Width: 956
VWidth: 2150
GlyphClass: 2
Flags: HMW
LayerCount: 2
Back
SplineSet
597.595703125 312.9765625 m 1
 577.640625 495.720703125 530.379882812 570.2890625 462.11328125 570.2890625 c 0
 393.845703125 570.2890625 348.685546875 496.771484375 348.685546875 390.6953125 c 0
 348.685546875 321.37890625 369.690429688 299.323242188 465.263671875 299.323242188 c 0
 511.474609375 299.323242188 562.9375 302.473632812 597.595703125 312.9765625 c 1
864.361328125 0 m 1
 783.491210938 -277.267578125 550.333984375 -457.912109375 143.884765625 -558.736328125 c 1
 36.7587890625 -262.564453125 l 1
 290.920898438 -200.598632812 492.5703125 -77.71875 560.836914062 10.5029296875 c 1
 528.279296875 5.2509765625 476.81640625 0 432.706054688 0 c 0
 213.202148438 0 73.517578125 129.181640625 73.517578125 377.041992188 c 0
 73.517578125 611.249023438 200.598632812 889.567382812 467.364257812 889.567382812 c 0
 754.083984375 889.567382812 879.064453125 618.600585938 894.818359375 315.077148438 c 1
 956.783203125 315.077148438 l 1
 956.783203125 0 l 1
 864.361328125 0 l 1
EndSplineSet
Fore
SplineSet
597 312 m 1
 579 495 531 570 462 570 c 0
 394 570 349 496 349 389 c 0
 349 319 375 299 473 299 c 0
 517 299 564 303 597 312 c 1
860 0 m 1
 777 -276 550 -458 144 -559 c 1
 37 -263 l 1
 291 -201 488 -78 557 9 c 1
 525 4 477 0 434 0 c 0
 212 0 72 129 72 375 c 0
 72 611 202 890 468 890 c 0
 758 890 881 620 894 315 c 1
 956 315 l 1
 956 0 l 1
 860 0 l 1
EndSplineSet
Colour: ff00ff
EndChar

StartChar: uniE063
Encoding: 57443 57443 528
GlifName: uniE_063
Width: 1166
VWidth: 2150
GlyphClass: 2
Flags: HMW
LayerCount: 2
Fore
SplineSet
727 551 m 257
 658 468 574 392 494 321 c 257
 494 311 l 257
 519 307 536 306 557 306 c 256
 710 306 782 331 782 352 c 256
 782 374 763 465 727 551 c 257
705 985 m 257
 756 1113 773 1253 773 1424 c 257
 1088 1424 l 257
 1088 1126 1013 952 897 754 c 257
 974 622 1049 478 1049 344 c 256
 1049 35 722 0 584 0 c 256
 404 0 249 47 122 121 c 257
 122 369 l 257
 266 472 416 603 539 758 c 257
 401 950 208 1082 37 1194 c 257
 216 1454 l 257
 398 1331 566 1160 705 985 c 257
EndSplineSet
Colour: ff00ff
EndChar

StartChar: uniE064
Encoding: 57444 57444 529
GlifName: uniE_064
Width: 1432
VWidth: 2150
GlyphClass: 2
Flags: HMW
LayerCount: 2
Fore
SplineSet
600 536 m 257
 285 511 l 257
 285 789 228 1047 105 1333 c 257
 395 1457 l 257
 537 1129 600 828 600 536 c 257
1432 0 m 257
 1430 0 l 257
 1249 0 1089 52 988 179 c 257
 788 30 520 0 105 0 c 257
 105 315 l 257
 797 315 872 386 872 618 c 258
 872 1424 l 257
 1187 1424 l 257
 1187 622 l 258
 1187 502 1190 426 1219 380 c 0
 1251 332 1310 315 1430 315 c 258
 1432 315 l 257
 1432 0 l 257
EndSplineSet
Colour: ff00ff
EndChar

StartChar: uniE065
Encoding: 57445 57445 530
GlifName: uniE_065
Width: 1870
VWidth: 2150
GlyphClass: 2
Flags: HMW
LayerCount: 2
Fore
SplineSet
1752 715 m 257
 1716 586 1697 498 1697 438 c 256
 1697 338 1748 315 1868 315 c 258
 1870 315 l 257
 1870 0 l 257
 1868 0 l 257
 1648 0 1523 69 1433 221 c 257
 1266 56 1047 0 751 0 c 256
 263 0 37 210 37 565 c 256
 37 673 61 795 114 928 c 257
 401 821 l 257
 372 726 354 645 354 577 c 0
 354 404 469 315 806 315 c 256
 1170 315 1378 427 1460 789 c 257
 1752 715 l 257
EndSplineSet
Colour: ff00ff
EndChar

StartChar: uniE066
Encoding: 57446 57446 531
GlifName: uniE_066
Width: 918
VWidth: 2150
GlyphClass: 2
Flags: HMW
LayerCount: 2
Fore
SplineSet
603 448 m 1
 536 428 472 421 401 421 c 0
 188 421 41 527 41 769 c 0
 41 998 154 1298 433 1298 c 0
 855 1298 882 720 882 545 c 0
 882 131 722 0 0 0 c 0
 -87 0 -158 71 -158 158 c 0
 -158 244 -88 315 0 315 c 0
 603 315 603 332 603 448 c 1
566 719 m 1
 546 906 495 985 427 985 c 0
 359 985 311 909 311 801 c 0
 311 732 334 706 432 706 c 0
 480 706 529 708 566 719 c 1
EndSplineSet
Colour: ff00ff
EndChar

StartChar: uniE067
Encoding: 57447 57447 532
GlifName: uniE_067
Width: 1881
VWidth: 2150
GlyphClass: 2
Flags: HMW
LayerCount: 2
Fore
SplineSet
1382 77 m 257
 1228 30 1034 0 831 0 c 256
 443 0 30 50 30 517 c 256
 30 679 74 798 116 908 c 257
 415 811 l 257
 378 706 354 619 354 551 c 256
 354 380 395 315 831 315 c 256
 901 315 1013 315 1070 326 c 257
 999 392 958 481 958 606 c 256
 958 857 1144 1037 1388 1037 c 256
 1627 1037 1819 858 1819 610 c 256
 1819 488 1779 394 1707 326 c 257
 1747 318 1802 315 1880 315 c 257
 1881 315 l 257
 1881 0 l 257
 1880 0 l 257
 1711 0 1516 33 1382 77 c 257
1386 395 m 257
 1463 436 1504 505 1504 589 c 256
 1504 659 1468 722 1388 722 c 256
 1306 722 1273 661 1273 589 c 256
 1273 508 1316 436 1386 395 c 257
EndSplineSet
Colour: ff00ff
EndChar

StartChar: uniE068
Encoding: 57448 57448 533
GlifName: uniE_068
Width: 987
VWidth: 2150
GlyphClass: 2
Flags: HMW
LayerCount: 2
Fore
SplineSet
0 315 m 256
 56 315 118 315 175 326 c 257
 104 392 63 481 63 606 c 256
 63 857 250 1037 494 1037 c 256
 733 1037 924 858 924 610 c 256
 924 488 884 394 812 326 c 257
 851 317 944 315 986 315 c 257
 987 315 l 257
 987 0 l 257
 986 0 l 257
 817 0 621 33 487 77 c 257
 336 24 187 0 0 0 c 256
 -87 0 -158 71 -158 158 c 256
 -158 245 -87 315 0 315 c 256
492 395 m 257
 569 436 609 505 609 589 c 256
 609 659 574 722 494 722 c 256
 412 722 378 661 378 589 c 256
 378 508 422 436 492 395 c 257
EndSplineSet
Colour: ff00ff
EndChar

StartChar: uniE069
Encoding: 57449 57449 534
GlifName: uniE_069
Width: 1493
VWidth: 2150
GlyphClass: 2
Flags: HMW
LayerCount: 2
Fore
SplineSet
1133 13 m 1
 1098 7 1043 0 1000 0 c 0
 779 0 640 130 640 375 c 0
 640 611 770 890 1036 890 c 0
 1312 890 1436 646 1458 315 c 1
 1493 315 l 1
 1493 0 l 1
 1442 0 l 1
 1366 -347 1105 -531 694 -531 c 0
 375 -531 37 -363 37 56 c 0
 37 281 102 440 193 609 c 1
 465 457 l 1
 391 315 352 186 352 56 c 0
 352 -115 454 -216 712 -216 c 0
 979 -216 1084 -128 1133 13 c 1
1164 312 m 1
 1146 495 1098 570 1029 570 c 0
 961 570 916 496 916 389 c 0
 916 319 942 299 1040 299 c 0
 1084 299 1131 303 1164 312 c 1
EndSplineSet
Colour: ff00ff
EndChar

